<svg xmlns="http://www.w3.org/2000/svg" viewBox="0 0 949 860.93"><defs><style>.cls-1{fill:#fff;}</style></defs><title>Logo</title><g id="Layer_2" data-name="Layer 2"><g id="Layer_1-2" data-name="Layer 1"><path class="cls-1" d="M949,856,6,860.93,3.7,419.13,2.54,198.23,2,87.78C1.88,71.19-2.21,48.6,1.67,32.55,9.7-.58,1.84,4.94,43.13,4.72L944.52,0ZM475.56,768.46c-19,4.59,9.07,24.14,8.55,27.28-5.93-3-37.51-16.34-38.51-15.6-27.48,20.47,19,23.62,19.23,23.69,29,9,66.38,2.18,99.9,3,15.44.39,75,2.23,29.77-26.54-13.57-8.63-55.1,4.88-55,22.27-18.88-8.44-42.27-13.07-41-37.09,24.09,3.84,34.56-15,40.88-33.6,1.41.64,8.81,23.61,13.47,28.1,11.24,10.83,41.82,16.29,54.47,10.18,17.62-8.5,9.09-46.3,33.18-42.71,7.38,1.11,10.55,36.41,37.93,31.16.12,22.47,33.1,16,37.64,5,.11,9.18,10.86,15.88,10,20-3.08,14.18-28.83,21.34,4.6,26.14,27.81,4,17.49-26.37,23.19-25.29-4-.76,12.27,20.43,14.79,22.45,6.65,5.32,30.34,11.15,38.1,11.89,28.91,2.75,39-11.77,58.59,3.65,3.66-6.34,21.73-38.6,5.85-32.22,19.66-7.9-2.88-3.86-.3-17.19a10.36,10.36,0,0,1,8.73-4q-4.15-13.62-18.68-9.77c12.19,16.47-1.13,11.43-11.24,18.77C847,780,861.2,781.31,861.14,783c-.27,7.31-21.52-13.49-33.58.08-6.38-8.37-3.93-4.67-13.52-2.81,1.28-6.79,1.08-11.8-1.4-18.27,1.76-.91,37.24-4.53,37-5q-10.14.47-15.18,8.51c25.49,11.67,18.32-2.4,22.11-21.34,14.17,9.77-4.72,9.88,23.6,12-7.81-32,23.16-114.6,3.93-139-17-21.51-158.81-2.3-187.7-2.51-29.27-.21-77.52,4.82-103.07-6.46-17.47-7.71-7-16.21-33.29-23.49-18.51-5.14-49.73,7.45-64.52-4.33,24.31-12.71,73.49,16.64,93.4,5.63,16.51-9.13,21.49-38,24.75-57.93,7.91,2.46,87.84,29.9,89.48,20.9.54-3-6.65-8-8.08-10.07,32.84,7.35-8.59-57.91-15.54-52,7.44-6.36,19.64,13.43,21.18,17.49,8-.25,9.56-38.06,5.51-45.19-7.37,5.94-39.13-12.37-52-15.71-16.55-4.28-17.35,2-28.69-5.76s13.35-12.74,8.57-14.45c-20.48-7.36-17.69-5.1-34.38-6.1-2.32-16.75,41.39-37,.89-36.81.91-17.66,23.36-44,42.8-45.77-1.26,6.78-17.39,19.81-14.55,27.79.95,2.64,18.2,29.71,21.08,21.13,4.27-12.71-14.75-10.76-.92-25.64a15.94,15.94,0,0,0,6.19,15.08q1.49-15.1,21-8.86c-2.12-16.11-31.56,26.66-15.59,26.63,10.35,0-.57-14.71,15.76-9.33,12.53,4.14,20.39,19.16,36.84,13q-4.89-2.33-2.9-8c1-4.38,10.94,8.41,11.25,10.19,1.3,7.47-20.62,39-6.62,38.13,2.2-7.73,11.37-54.64,28.51-30.23,6.14,8.74-6.32,31.95-8.29,42-1.48,7.55-16.08,55.09-15.85,56.08,5.56,23.74,18.15-21.41,18-21.09,7.59-21.14,7.15-47,15.36-69a1098.67,1098.67,0,0,1,132.51,58.2c15.84-51.8,2-143.59-16.42-194.85-19.13-53.08-53.29-98.47-93.93-136.86C676.09,45.79,538.64,15,406.38,36.52,314.74,51.43,227.26,103.73,170,177.26c-66.4,85.2-102.49,213.49-83.88,321.41,6.48,0,32.85-34.6,40.44-41.09,28.26-24.12,59-27.05,87.95-42.61,29.16-15.66,17.2-45.41,51.32-47.45,1.43-3.13-.62-4.51-6.12-4.13a15,15,0,0,0,8.79-11c2.3,5.23-27-6.39-21.27-5.34-4,1-5.44,3.6-4.21,7.86-8.47-5.73-3.71-32.47-16.49-27.67q-2.76,7.53,2.61,14.05c-18.67,3.58-5-25.44-30.29-2.88-8.88,7.92-9.55,16.47-6.16,33.13-14.26,3.83-3.56-48.69,4-56.88,11.61-12.61,43.73-20.12,57.79-13s10.14,27.18,18.93,32.78c16.88,10.76,46.21-15.14,65.13-.65-14.75-1.75-54.38-1.58-63.28,12-2.87,4.39-4.17,40.31,8.45,35.16,0-2.88-7.17-15.5-1.06-16.38,31.2-4.53-15.07,67.22-22.25,58.05,20.71,26.43,85.6-66.15,84.26-66.56-7.41,23.84-16.74,39.62-36.37,53.82-13,9.43-28.76,11.11-42,19.49q-19.41-4.71-24.36,10.63,7,8-2.42,13.52c-8.22-9.91-5.69-32.07-18.91-35.91,1.47,8.19-13.6,6.8-8,12.71,24.71,26.1-14.72,28.17-10.61,37.39,2.82,6.32,13.22-2.26,15-3.43,4.69,18.86-3.23,19.12-19.3,22.4-26.9,5.51-4.87-7-17.18-12.07-33.31,26.37,69.46,25.39,66.07-2.8-10.05,3.69-9.55,5.31-22.43,6.07-.11-20.58,46.11-10.12,40.88-26.84-2.45-7.85-7.49,1.6-9.1,1.32l-.06-10c31.2-2.39-21.65,67.52-32.09,73.46-.85-8.47,4.07-21.94-9.44-17.9-.91.27,4.65,48.36,5.08,49.16,12.39-9.45,11-27.36,28.53-38.8,3-2,31.5,1.94,27.84-6A49.27,49.27,0,0,0,259.61,493c21-12.82,33.15-33.63,52.93-41.62,5.09-2.06,48.42-13,52.14-8.83,6.48,7.29-43.17,20.19-42.17,27.59a84.66,84.66,0,0,1,33-.29C340,481.19,266.8,476.36,277.73,517c-.21-.14-42.7,46.34-42.11,50.79,17.94-.1,114.07-9.91,121-.94-11.47,7.6-28.11-3.3-38.84,7.73,36.38,26,75.41,16,117.7,14.86,13.26-.37,104.16,6.55,94,18.41-11,12.81-80.84,1.68-100.06,1.52-35.4-.28-70.71-2-106.09-2.84-80.22-2-162,3.61-241.85-3.08.25,47.46,39-4.19,53.47,21a15.57,15.57,0,0,1-7.1,11.33c-5.34-4.35-2.78-2.65-.36-8.55-16.54,1.92-41.69,10.66-51,25.41-12.68,20,6.24,29.33,12.45,42.58-23,4.39-19.86,47.54-19.77,63.83,0,10.71,9.63,62.74,20.07,37.89,13.11,20.65,39.56,9.53,60.23,9.43,12.48-.06,18.46,3.46,31.81,1.92,16.3-1.88,8-10.22,18.2-13.35.12,24,35-5.23,37.76-1.88-25.48,23.53,45.76,13.92,59.57,14.35,13.06.41,36.4,2.74,49.15,0,2.48-.53,31.45-12.31,29.89-12.28-11.27,31.45,23,3.2,24.95,7.49a11.8,11.8,0,0,0-12-4.94c3.44-10,20.22-10.63,29.29-4-3.85,2.94-15.6,3.46-15.39,2.35-1.78,9.38,13.44,13.79,20.27,10.47,24.08-11.7,3.52-13,5.6-20.64,0,.06,29.38-31.39,21.57-33.36C448.26,752,476.36,769.33,475.56,768.46ZM736.27,522.11c-32.51.17-19.57,9.84-2.66,21.53-.8,1.7-20.49-1.26-17.15,5.71,8.54,17.82,64.06-1.22,68.85-16.43-17.44-12-34.56-6.14-47.09-21.72Q733.77,515.46,736.27,522.11Zm-12.14,70.95c-5.2-.94-96-26.52-88.4,3.29C637.46,603.11,725,609.76,724.13,593.06Zm-610.67-4c-2.06-7.62,69.17-40.71,65-56.53-23.69-2.28-32.57,19-50.4,30.37,10,3.39-23.73,19.49-23.87,22.32-.29,5.95,6.71.75,7.07,4.55-2.56.45-13.46.78-11.07,7,4.47.53,40.29-1.51,38.91-11.2Q126.09,582.48,113.46,589.05Zm726.32-45.74c-6.92,4.21,19.49,32.16,23.1,37.63-8.13-2.79-71.41-2.24-72.17,5.4,0-.19,85.53,6.36,91.43,9.71C891.64,586.21,848.81,552.13,839.78,543.31ZM348.66,589.85c-11.25-12.61-63.11-9.91-71,1C287.35,594.84,340.91,601.55,348.66,589.85Zm-189.77,0c18.81-21.08,49.2-56.48,23.26-87.22-12.58,10.66,6.1,38.57,1.92,51C180.71,563.6,148.19,582,158.89,589.83Zm57.79-10.05c1.58,1,25.55,15.22,24.71,9.57C239.72,578,225.19,569.24,216.68,579.78ZM823.16,521c-14.44,6.13,13.32,11.79,19.94,9.06Q839.32,518.16,823.16,521ZM281.34,384.25q-7.41.31-10.79,6.56C270.47,397.87,291.47,397.89,281.34,384.25ZM213.72,445.6c-4.37-8.84-13.48.92-10.39,7.41Q211.46,453.43,213.72,445.6Zm-24.8,118.86c-4.06,5.52,3.86,17,6.45,11.27A17.88,17.88,0,0,0,188.92,564.46Zm583.76-12.37c-9-.48-12.83,2.06-11.89,7.67C767.7,559.7,772.31,556.84,772.68,552.09ZM198.53,581.66c-6.05.79-2.11,7.41-.05,10.15Q206.55,587.42,198.53,581.66Zm9.68.43q-8.24,5.13-1.36,9.74Q217.29,587,208.21,582.09ZM781,499.86c-6.77,4.37,3.37,10.82,4.87,7.71A7.15,7.15,0,0,0,781,499.86Zm-64.66,58.83q-2.59-5.94-9,0Q711.41,568.7,716.31,558.69ZM247.94,574.5q-5.13-3.68-5.18,4.36Q248.4,585,247.94,574.5Zm15.22-246.29q-2-5.4-6.85.58Q259.18,334.72,263.16,328.21ZM655.7,545.56q-5.84,1.22-.21,6.56Q661.69,551.44,655.7,545.56Z"/><path d="M475.56,768.46s-25-15.92-25.5-16c10.37,2.62-21.21,32.06-21.57,33.36-2.24,8.23,25.68,7.54-5.6,20.64-7,2.93-22.08-.9-20.27-10.47-.21,1.11,11.54.59,15.39-2.35-9.07-6.63-25.85-6-29.29,4a11.8,11.8,0,0,1,12,4.94c-2-4.29-36.22,24-24.95-7.49,1.61,0-27.48,11.76-29.89,12.28-14.45,3.14-34.57.43-49.15,0S211.23,817,237.21,793c-3.12-3.73-37.63,26.87-37.76,1.88-9,2.77-2.18,13-16.44,14.24-13,1.1-21.06-2.87-33.57-2.81-20.77.09-47,11.44-60.23-9.43C78.64,822,69.19,769,69.14,759c-.1-16.91-3.24-59.44,19.77-63.83-6.37-13.58-25.39-20.47-12.45-42.58,8.37-14.3,36.4-23.71,51-25.41-2.42,5.9-5,4.2.36,8.55a15.57,15.57,0,0,0,7.1-11.33c-13.45-23.38-53.23,24.88-53.47-21,79.78,6.68,161.68,1.1,241.85,3.08,31.35.78,62.65,2.21,94,2.68,14.37.21,102.44,9.93,112.13-1.36,9.12-10.64-79.94-19.2-94-18.41C394,591.73,353.37,600,317.79,574.53c11-11.31,27.29-.07,38.84-7.73-6.44-8.33-102.46.84-121,.94-.59-4.45,41.9-50.93,42.11-50.79-10.64-39.52,62.23-35.73,77.78-47.15a84.66,84.66,0,0,0-33,.29c-.92-6.77,49-19.94,42.17-27.59-2.15-2.41-47.88,6.94-52.14,8.83-18,8-32.9,29.38-52.93,41.62a49.27,49.27,0,0,1,16.13,9.36c4.1,8.92-25.64,4.58-27.84,6-16.63,10.85-16.61,29.71-28.53,38.8-.43-.8-6-48.89-5.08-49.16,13.51-4,8.59,9.43,9.44,17.9,10.51-6,63-75.82,32.09-73.46l.06,10c1.61.28,6.65-9.17,9.1-1.32,5,16.11-41,6.27-40.88,26.84,12.88-.76,12.38-2.38,22.43-6.07,3.48,29-99.22,29.05-66.07,2.8,11.39,4.68-9.92,17.62,17.18,12.07,15.93-3.25,24.12-3.05,19.3-22.4-1.74,1.17-12.14,9.75-15,3.43-4.79-10.73,36.78-9.74,10.61-37.39-5.59-5.91,9.48-4.52,8-12.71,13.22,3.84,10.69,26,18.91,35.91Q249,448,241.93,440q4.95-15.33,24.36-10.63c12.9-8.2,29-10.37,42-19.49,19.74-13.91,29-30.23,36.37-53.82,1.26.39-63.47,93.09-84.26,66.56,6.76,8.63,52.94-62.51,22.25-58.05-6.11.88,1.05,13.5,1.06,16.38-13.05,5.32-10.27-32.39-8.45-35.16,9-13.63,49.47-13.63,63.28-12-18.73-14.34-48.29,11.38-65.13.65-8.6-5.48-4.76-24.61-18.93-32.78-13.51-7.79-46.82.79-57.79,13-5.88,6.53-15.17,59.88-4,56.88-3.48-17.1-2.49-25.16,6.16-33.13,21.29-19.63,16.52,5.52,30.29,2.88q-5.37-6.53-2.61-14.05c12.78-4.8,8,21.94,16.49,27.67-1.23-4.26.17-6.87,4.21-7.86-5.76-1.05,23.57,10.57,21.27,5.34a15,15,0,0,1-8.79,11c5.5-.38,7.55,1,6.12,4.13-33.12,2-22.18,31.81-51.32,47.45-26.29,14.11-54.28,15.68-80.79,36.56-5.79,4.57-40.93,47.14-47.6,47.14-18-104.59,15.89-227.82,77.49-311.94,57.84-79,146.54-134.1,242.8-150.21,127.35-21.33,266.33,6.92,362.73,96.58C812,173,848.73,220.27,868.78,275.91c18.46,51.27,32.28,143,16.42,194.85a1098.72,1098.72,0,0,0-132.51-58.2c-8.21,22.09-7.77,47.9-15.36,69,.12-.32-12.47,44.83-18,21.09-.47-2,14-46.68,15.85-56.08,1.93-9.85,13.13-31.08,9.26-39.86-15.74-35.74-28.06,23.12-29.48,28.1-14,.92,7.9-30.66,6.62-38.13-.3-1.8-10.23-14.56-11.25-10.19q-2,5.64,2.9,8c-14.85,5.57-25.4-9.21-36.84-13-15.12-5-5.72,9.31-15.76,9.33-18.21,0,14.31-36.35,15.59-26.63q-19.5-6.24-21,8.86A15.94,15.94,0,0,1,649,358c-13.83,14.88,5.19,12.93.92,25.64-2.9,8.65-20.55-18.94-21.08-21.13-2.09-8.78,13.18-20.41,14.55-27.79-20.66,1.88-41.81,26.68-42.8,45.77,40.5-.21-3.21,20.06-.89,36.81,17,1,12.39-1.81,34.38,6.1,3.38,1.21-6.61,8.56-9.52,6.08q-5.94,21.46,12.13,17.19a106.26,106.26,0,0,1,17.51-3.06c9.64,3.45,47,19.72,52,15.71,3.16,5.56,2.84,44.93-5.51,45.19-1.54-4.06-13.74-23.85-21.18-17.49,7.36-6.28,47.33,59.09,15.54,52,1.43,2.07,8.62,7.09,8.08,10.07-1.59,8.74-82.76-18.81-89.48-20.9-2.93,17.88-8,50.43-24.75,57.93-22.73,10.2-67.29-19.29-93.4-5.63,13,10.35,47.74.75,64.52,4.33,20.47,4.36,19.57,13.44,30.68,18.39,28.73,12.8,69.55,11.3,105.68,11.56,32.06.23,64.11-.06,96.17,0,17.87,0,77.33-9.89,89.9,1,20.5,17.78-9.19,112.22-2.3,140.49-28.32-2.08-9.43-2.19-23.6-12-3.74,18.68,3.34,33-22.11,21.34q5-8,15.18-8.51c.23.44-35.25,4.06-37,5,2.48,6.47,2.68,11.48,1.4,18.27,9.59-1.86,7.14-5.56,13.52,2.81,12.21-13.74,33.31,7.27,33.58-.08.06-1.72-14.14-3-11.53-4.91,10.11-7.34,23.43-2.3,11.24-18.77q14.53-3.84,18.68,9.77a10.36,10.36,0,0,0-8.73,4c-2.58,13.33,20,9.29.3,17.19,15.88-6.38-2.19,25.88-5.85,32.22-20.45-16.07-29-.54-58.59-3.65-9.37-1-30.83-6.07-38.1-11.89-.28-.22-22.4-23.9-14.79-22.45-5.7-1.08,4.62,29.28-23.19,25.29-33.43-4.8-7.68-12-4.6-26.14,1-4.42-9.84-10.57-10-20-4.21,10.17-37.52,17.78-37.64-5-26.29,5-32.23-30.58-37.93-31.16-23-2.31-15.14,34.06-33.18,42.71-13.81,6.62-43.06.84-54.47-10.18-4.72-4.56-11.72-27.3-13.47-28.1-6.5,19.08-15.84,37.59-40.88,33.6-1.23,24,22.16,28.65,41,37.09-.08-13.62,38.89-32.28,53.64-25.47,12.74,5.88,17.33,24.23,8.29,32.84-11,10.53-24.94-2.82-36.7-3.1-31.87-.76-70.27,7.89-99.6-1.27-4.21-1.32-35.24,1.53-21.71-20,5.9-9.41,29.63,4.55,40.69,10.19C484.43,793.84,457.1,772.93,475.56,768.46Zm22.56-59.05c-1.07-7.76-10.58-8.78-11.17.27q5.54-4.47,11.28-.37-1.35,7.28-8.78,6.35a12.24,12.24,0,0,0,4.53,5.16C495.09,720,514.35,707.7,498.12,709.41Zm196.07-3.07q-2.27-4.8-7.18-2.67c1.81,5.58-1.1,8.42,7.27,2.56.19.73-7.33,16.11,1.75,13.9Q711.27,700.75,694.19,706.34ZM241.55,690.2q7.3-8.54,12.4,1.32,7.23-6.72,1.49-16.21c2.09-1.9-19.05,15.47-16.67,19C249.66,710.69,243.07,685.85,241.55,690.2ZM198,730.42q-1,10.25,8.56,9c2.79.11,2.93-20.38.31-17.91Q195,736.17,198,730.42Zm420.18,9.08c5.28-3.1,4.45,10.08,6.33-11.85C610.48,728.64,599.36,744.48,618.14,739.5ZM409,492c-16.31,5.07.83,45,1.21,45,1.56-12.1-14.26-56.75,13.33-45.36.2-.65-21.6-22.88-21.5-4.23Q405.71,483.38,409,492ZM732.52,766c.05,8.85-9.39,5.71-2.93,11.11,12.26-16.44-5.61-19,15.66-29.33-4.73-7-14.17-3.22-12.53-12.79-6.88,2.89-15.85,33.39-7.92,36.48Q725,763.63,732.52,766ZM590,724.51c.37,10.84-4.57,15.61-14.39,16.45,18.64,14.48,31.59-7.43,21.86,22.12,25.06-5.38-4.26-28.16-5.67-35.65,8.12,2.58,12.2,2.75,17.66-3.07-28.86.15-9.58-12.15-23.68-21.12-2.12-1.35-13.28,5.72-11-3.82.35-1.44,7.32-12.88,9.3-17.06-6.07,2-7.24,3.27-6.18,9.1-12.19-3.65-40.54-2.5-32.32,13.1,20.27-22.18,43.06,11.74,10.32,15.22,2.54,12.15,13.27-3.14,18.82,7.22-7.55,8.41-12.19-7.87-12.61,4C561.71,742.19,587.71,725,590,724.51ZM565.75,271.87c-.69,1.54-117.75-14.56-61.31-54.18,9.73-6.83,26.8-.9,37.34-8.13,7.6-5.22-1.31-13.68,4.23-18.73,3.61-3.29,31.33-26.21,33.06-26.51-9.13-8.32-19.83-11.91-29.66-19.38-19.38-14.74-20-25.68-28.4-39.5,2.25,3.71-34.52-57.49-33.38-57.13-9.08,20.87,12.49,34.2,19.15,49.78,4.48,10.48,5.39,21.11,8.77,30.37,2.47,6.76-1.58,17.26.61,24.62,1.38,4.62,20.45,2,20.54,13.19.15,18.33-19.08,31.43-32.84,38.76-10.92,5.82-38.14,4.9-45.05,16.07-13.91,22.5,16.48,27.42,14.69,41-2.66,20.22-21.25,18.42-30,31.42-16.86,24.95-10.18,5.38,1.25,33.27,9,21.93,9.74,31,39.42,47.21,22.05,12.07,47.45,8.14,67.76,17.13,33.81,15,5.14,5.48,6.69,25,2.07,26,6,36.05-15,62-4.5,5.56-31-4.54-16.27,20.46,9.36,15.86,33,7.89,45.94.57,6.35,15.27-18.09,16.91-31.19,17,8.19,9.77,25,18.46,31.28,28.36,8.25,13,3.07,16.45,9,34.33,21.46-19.56,29.78-51.39,13.51-77.65-7.25-11.69-42.43-15.53-45.33-24.11-3.38-10,30.69-29.88,32.79-34.86,26.32-62.34-21.35-47.41-61-62-31.16-11.47-59.45-35.21-55.22-70.14C472.43,266.31,528.52,272.06,565.75,271.87Zm-230.08-27c9.57,25.35,30.23,2.88,41.47,18.74,18.18,25.62-8.67,19.25-19.11,37.27-15.12,26.07-2,34.6-5,61.27-1.76,15.62-20.78,48.39-16.58,62.48,31.58-34.83,16.33-38.49,23.78-80.79,3.6-20.48,13.62-31.51,27.84-46.47,13.26-14,50.68-27.93,57.58-38.95,9.64-15.41-102.36-3.13-27.84-43.79,39.11-21.34,75.55-24,39.22-73.33-2.55,32.65,2.17,52.51-41.25,65.64C393.43,213.69,347,220.13,335.67,244.87Zm55.88,457.18c2.29-7.57,5.51,50.72-1.28,43.33Q402.55,752.07,410,735a10.07,10.07,0,0,1-9-6.85c19.05-.87,8.65,10.75,30.16,9.34q1.28-3.32,2.26-6.74-15.11,4.37-14.84-8.19c20,1.34,35,14,54.87,16.5,27.62,3.54,33.05-11.2,32.24,20.49,19.33,4.39,3.39-27.49,3.9-38.45-14.74,5.07-82.16,16.27-84.47-7.33-1-10,38.41,12.64,27.28-12.12-4.07,5.54-24.71,7.54-28.61-.31,3.79-1.8,15.32-10.65,6.29-17.73q-7.22-1.8-12.1,3.32c.79,3.93,7.07.58,8.25,4.42,2.71,8.83-10.77-1.17-9.86-.35.51-2.09,6,36.93-4.16,30.07-6.08-4.11-1.59-6.69.58-12.22A19.7,19.7,0,0,1,400.23,704C434.48,695.6,379.55,690,374,681c-11.23-18.35,7.71-30.18,19.72-36.23-13.18-24.78-82.91-33.5-71.07,2,34.21-28.79,58.78,76.27,9.53,36.28-.9,25.41,53.86,2.24,70.13,15.79A10.06,10.06,0,0,1,391.55,702.05ZM749,667.19c.33-3.67-9.44,2-8.59-4.22,1.38-10.14,16.75-4.86,18.25-12.4,4.9-24.55-66.6-23.43-74.36-18.92-24.82,14.4,3.42,38.52-2.76,65.67C717.66,712.42,713.81,664.28,749,667.19ZM566.83,662.3c7.46-11,32.84,4.12,37.75,10.05,10.6,12.81,10,26.54,5.79,47.93,10.75-5.94,22.22,3.79,33.19-5-17.08-9.72-9.35-9.13-22.43-7.49,1.34-12-10.37-18.25-6.62-30.41,6.76-21.91,10.44,1,22.31-14.52-3.2-1.63-21.24,3.11-20.64-3.42a24.9,24.9,0,0,1,17.21-10.34C613,618.05,522.25,625.85,566.83,662.3ZM496,490.58c-2.78,65.35-32.36-7.81-65.11,28-18.83,20.61-14.2,25.52,12.41,31.93,48.84,11.79,15.56-9.35,37.43-22.68,4.27,35.52,21.19-19.55,24.72-21.07C494,501.28,510,494.73,496,490.58ZM470.33,690.49c11.76-16.9,11.86,8.52,17.18,7.69,1.4-.22,10.24-31.11,10.45-30.78-9.78,3.33-31.19,28.54-25.79-2.62a45.92,45.92,0,0,1,27.1-34.52c-6.76-1.42-48.72-7.83-55.13-3.09-34.47,25.48,5.22,11.67,3.84,30.77-.32,4.42-9.25,37.16-7.34,38.34C445.15,691.67,461.47,688.68,470.33,690.49Zm356.63-23c46.45-43-2.64,67.6-15.73,21.36a9.77,9.77,0,0,0,3.27-10.31c-7,.81-15.87,15-10.73,22.13,15.24-15.21,21.53,5.73,31.05,7.71-.19-14.43,18-26,25.24-43.06,4.94-11.65,28.62-6.87,8.41-30.43-3.61-4.2-68.42.72-67.08-.58-14.28,13.82-6,15.09,1.3,23.68C805.73,661.53,819.5,646.41,827,667.45ZM258.51,623.9c-28.76.15-50.56-5-70.45,17.18,20.8,14.92,48.48,12.07,66.92,24.15C254.84,639.6,278.21,653.09,258.51,623.9Zm493.84,95.86c-15.52,2.88-14.42-18-17-24.94,2.68,7.14-18.27,37.24-31.72,41.29s-19.93.83-28.06-14.15a13.15,13.15,0,0,1,9.54-1.88c-9.68-25.07-20.32,1.46-36.32,7,1.94,3.92,40.48,2.25,29.78,14.49,18,1.35,24.1-2.17,24.2,18,20.54-13.43,22.63-30.9,25-51.11,24.23,6,3.88,20.23,8.92,28.71,6.5,11,23.76,10.94,23.87,31.76,22.3-18.39,24.49,24.82,47.46-.18-8.83-1.89-.2-17.32,2.19-19.41-3.72-5.12-28.19,15.52-42.53,8.68C752.7,750.86,749.82,734,752.35,719.76Zm-503.5-17.12c3.48,16.56,10-1.22,10.62-7.3-17,3.46-28,11.56-24.44-9.6-16.72,12.24-25.31.2-36.58,23.8a37,37,0,0,0-7.09-9.48c-12.34,25.23,6,8.9,18.32,10.55,3.27.43-2.07-14.63-2.32-14,9.19-23.73,8.8,22.47,8,19.55.42,1.49,6.72,37.51,7.82,29.94,1.26-8.75-36.05,15.87-33.85,13.54a45,45,0,0,0,12.64,0,9.85,9.85,0,0,1-1.27-8.81c5.16-3.32,19,18.52,16.45,19.74a16.42,16.42,0,0,1-13.52-2.36C221,822.21,232.89,720.44,239,726c-4.11,14.38-16.64,7.42-16.74-3.76-.11-11.75,19.09-7.35,3.83-14.08Q233.42,696.21,248.85,702.64Zm34.45,17.09q-5.62-5.49-4.14-12.59c-4.47-1.29,32.78,14.07,26,8.52,12.91,10.52-8.52,8.82-10.8,10.55,1.39,4.22,12.05-1.82,11.49,6.28-.4,5.79-9,6.76-12.85,8.41,11.58,8.22,15.35,8.16,14.12,24.39,16.05-4.7,2.91-21.68,34.92-21.85-4.4-1.63-26.64-5.33-29.4-11.27-5-10.78,34.49-.24,34.61-.12,4.5-14.71-18.24-13.07-20.91-14.67,3.8,2.28-26.58-14.86-21.15-14q-7,3.76-7.11,12.83c-.22-6.63-7.16,1.56-1.71-12.82-8.35,1.06-31.79-5.85-30.54,6.21l6.7,0C264.61,721.38,269.66,721.17,283.3,719.73ZM851,725.41q.3,7.35-5.62,10c-12.69-.5,7.9-19.53,8-20.08-5-.89-31.23,4.89-31,2.63-1,10.33,14.63,4.87,15.44,11.75-6.84,9.51-9.14,17.19-20.68,9.26a46,46,0,0,0-.56,12.67c13.9,8.53,16.33-24.11,28.82-7.86.09-8,14-9.21,20-11-.07,2.47-3.49,16,2.88,14.54,2.65-.63,1.8-18.66,8-15.39A49.41,49.41,0,0,0,851,725.41ZM668.51,329.61c.27,3.13,29-1.51,33.8,1.21,12.46,7.13,9.77,20.72,15.81,32.36,47.65-52.65-122.45-54.23-107.47-30-1.52-2.47,60.49-17.91,72.38-7.88Q677.17,331.76,668.51,329.61ZM83.81,757.07C88,765,63.35,774.21,74,790.12c2.82,4.22,4.77-11.16,5.24-11.26q9.06.42,5,8.66c17.42-.1-2.86-15.29-2-19.2A16.09,16.09,0,0,1,94,768.26a12.61,12.61,0,0,0-4.24-7.54c9.41-1.39,13.89-5.54,23.78-4.47,4.27-13.48-15.55-2-17.8-3.49q-.24-10.54,10.65-6.46c-3.53-8.36-21.32-4.86-30.92-9.06.6,3.31,8.83,17.31,10,15.86-6.3,8-8.48-5.7-12.14,5.06Q79.19,763.47,83.81,757.07Zm249.33-92.31q-13.25-4.57-9.62-13.19c-19.25,5.44-37,1.11-56,5-2.45-2,43,10.2,43.52,10.26,12.92,1.72,5.31,7.2,14.26,9.21,10.56,2.37,21.13-16.83,11.72-20.64Zm459.6,84.9c3.17-4.63,4.64-18.66,1.59-25.85-15.71,11.74-26.12,6.84-32.45,20.85,6.33-14,21.58,11.46,21.71,11.57a19.31,19.31,0,0,1,.68-12.79Q791.59,741.84,792.74,749.66Zm-598.11-349c7.67,2.52,28.85-15.37,33.09-19.83-8.9-6-59.51,32.28-68.87,38.36C170.08,421,189.67,410.13,194.63,400.61Zm266.62,79.62c-8.64,2.91.82-7.75-5.53-10.11-6-2.25-15.44,12.81-27.21,11.86.41,11,46.93,7.6,47.88,3.6ZM788.13,777.46c-3.25-1.74-30.34-15.32-23.18.2q2.38-5,7.23-1.85c-.54-.32-26,20.24-3.63,19.17C773.21,794.75,785.32,782.31,788.13,777.46ZM385.89,788.41c5.33-2.73,14.45-23.67,22.24-21-8,25.44,13-7.46,7.87-3.35-4.11,3.28-23.5-1-29.28-1.49Q393,776.07,385.89,788.41ZM523,675.68c12.82,1.6-5.67-19.6-7.65-20.07C507.9,653.88,492.53,682.38,523,675.68Zm335.07,31.63c2.55,11.06,9.55,8.38,15.77,17.75q7.74-2.31,8-12.66c-12.36,2.61-8.21-6.95-2.87-10.25C863.42,688.43,871.22,707.29,858.06,707.31ZM198.41,385.5c16.66-10.71,9-14.19,18.9-30.91-9.51,1.23-12.22-10.89-18.8,1.69a13.39,13.39,0,0,1,8.75,5.65C208.76,369.59,187.46,368.83,198.41,385.5ZM173.29,642.2c-.71,4.55-31.82-18.39-31.77-18.41-.25,14.1-6.63,22.15-6.58,31.66C150.91,649.07,155.16,639.33,173.29,642.2Zm336.58,56.51-6.57,5.49c2.2,12.49,15.13-6.28,17.47-5.52,8.4,2.72-6.43,11.46-1.58,17.25C546.36,705.32,511.48,687.14,509.87,698.71Zm-90.59-132c27-.14,15.4.05,20.3,12.69a13.46,13.46,0,0,0,11.34,1.34q-7.21-8-.18-15.94c-9.23-4.09-25.16-6.61-35.92-9.07ZM277.77,679.74c-22.06,14.8,40.65,16.13,18.82,5.25C291,682.18,283.23,683.21,277.77,679.74Zm492.32,18.91c-17.91,25.51-19.61-2.73-11.69,25.67C761.77,716.66,775.11,707.07,770.09,698.65Zm-664.53,61.9Q94,767,95.23,780.22C121.46,783.34,114.27,770.23,105.56,760.55Zm154.61-16.61q20,9.28,25.39-6c2.3-7.33-20,.92-4.12-10.45l-12.12.07c1.57,2.67,6.26,12.42,4.26,13.68C263,748,267.12,727.23,260.17,743.94ZM543.47,628.5c-22.91-15.22-2.83,26.64-2.42,17.15-.06,1.2,11-9.19,9-14.64q-3.64,9.09-11.57,6.78Zm5,107.33c-13.27,22.56,10.39,11.76,16.76,12.57A36.94,36.94,0,0,0,548.48,735.83ZM104.21,656.7c6-8.48,8.3-8.46,8.83-18.69-8.22,3.75-31.9,9.23-25.31,21.06,9.9-7.92,15.39,9,8.66-9.18Q107.09,646.59,104.21,656.7ZM476.05,783.55a71,71,0,0,0,5.82-8.08c12.49,8.69-14.37,17.8,16,7.23C494.5,780.76,470.66,752.57,476.05,783.55Zm-169.67-99.2c2.69,27.7,8.71,2.79,18.87,7.16Q323.4,676.76,306.38,684.35ZM266.7,778.78q-6.78,11.22-19.43,8c8.25,4.58,16.81-4.56,18.43,6.24,12-7.63,15.27-6.94,12.84-23.53C272.36,768.54,276.91,785.61,266.7,778.78Zm520.6,18.06c2.41.77,27.51-6.55,26.6-5.59C799,772.63,797.13,784.85,787.3,796.84Zm76.45,20c3-2.35-1.15-19.33-5-21.09-6-2.75-9.2,19.1-8.71,21.74C854.9,813.58,859.67,811.56,863.75,816.86ZM307.87,784.13c7.19-5.69-12.88-9.7-16.77-7.45,13.43,15.25-8.8,2.23-5.05,14.15C289.07,800.43,301.64,783.35,307.87,784.13Zm50.61-351.37c-3-4-49.38-3.86-51,3.45C324.28,431.92,341.83,440.84,358.48,432.76ZM699,488.15c8.62-15.79-5.87-19.71-15.72-7ZM822.42,814.93c-5.22-12.39-33.37-7.19-29.6-.57,5.7,10,12.71-3.74,14.27-7.09Q811.16,818.33,822.42,814.93ZM189.51,765.62c-11.14,4.88-46.6,18.82-21.07,26.31.92-1.51-5.83-9.5-3.65-10.26C178.23,777,186.7,775.56,189.51,765.62ZM365,712.52c-11.84,18.18,4.67,19,12.43,2.17ZM157.38,683.8c-26.59-12.37-13.41,12.15-23,14.64,13.34-3.48-.49-8.27,7-11.12C159.93,680.2,130.31,705.6,157.38,683.8ZM434.8,660.68c.6-4.42-41.54-6.06-49.75-1.07C387.17,663.55,434.23,660.68,434.8,660.68ZM122.45,695.62c1-1.4,26-30,11.37-33.42-5.27,20.69-9.38,8.1-20.07,20Q126.08,683.75,122.45,695.62ZM241.7,707.14c-9,16.41-3.73,17,12.2,15.67A38.58,38.58,0,0,0,241.7,707.14Zm32.76,53.26q10.46-1.26,10,9.58c7.79-30.15,15,.57,18.49-9.72C308.65,743.25,276.63,759,274.46,760.4Zm515.6-46.86a15.73,15.73,0,0,0,8-3.22c-4-11.89-18.35-16.07-22.54-4.11Q785.11,705.51,790.06,713.54Zm-286.2-83.09c3.53,2.38-8.36,5.94-9.56,12.06,8.87,0,16.58-2.08,24.86-2.44Q514.86,629.72,503.86,630.45ZM82.13,672.82c-1.73,6.23,19.27,2.35,20,1.93-8.84,3.65-20.3-13.19-26-18.11C71.54,666.76,73.35,666.86,82.13,672.82Zm727,64.89c24.8,2.53-1.11-23.7-7.49-11.84Q797.44,736.57,809.11,737.71ZM586.2,683.08c7.53,8.35,5.12.85,14.88-1.45a84.55,84.55,0,0,1,.34,8.86c22.3,1.49-3.44-17-2.48-17Q590.66,674.65,586.2,683.08Zm259.39,17q-8.55-5.67-7.41,4.7,5.88,6.15,13.9,3.85a32.32,32.32,0,0,1-4.85-6.77q5.19-3.71,11.21,1.4c2.69-9.53-8.92-1.27-4.44-10.35A12.12,12.12,0,0,0,845.59,700.09ZM568,678.19c1.26-7.3,28-5.66,21.51-12.2,1.58,1.6-18.78-3.06-17.07-3.64Q565.32,668.73,568,678.19ZM86.09,731.14q8.66,11.54,13,2.55c.84-2.75-21.82-15.44-24.68-8Q74,735.82,86.09,731.14Zm667.43,49c9.91-8.88-11.81-30.51-17.59-17.53,5.32.49,8-2.94,10.81,2.75a12,12,0,0,0-6.88,4.64C738.49,773.48,755.33,771,753.52,780.11ZM491,761.44c7.39-13.89-6.8-12.08-13-17.51-.32,6.36-3.64,11.56-2.13,17.57A21.64,21.64,0,0,1,491,761.44ZM678.27,497.87c-2.29,11.37,11.16,18.25,21.33,18.48C698.61,506.76,685.45,503.12,678.27,497.87Zm-540,217c2.4-8.06-3.63-6.65-9.1-1-6.4,6.65,8,18.73,15,7.1C140.16,719.09,122,713.23,138.27,714.85ZM681.35,767c6.37,6.28,5.54-7.42,10.43-7.7,9.76-.55-13.37,9.65,1.91,11.73,7.34,1,3.51-14.76,1.53-15.81Q683.52,754,681.35,767ZM151.47,743.16l-35.82,2.38C122.59,753.86,144.73,750.53,151.47,743.16Zm384.22-28.82,3.63,10c6.21,4.64,14.5-14.73,9.21-15.93C543.52,707.27,543.37,717.75,535.69,714.34Zm-78.8-155.18c1.66-10,15.88,28.55,10.94,24.2C488.52,567.34,471.3,559.9,456.89,559.16ZM136.11,634.88c-4.75-1.89-6,13.21-14.51,13.78.08-2.16,4.31-11.71-.37-11.44-5.53.31-4,13.68-1.82,15.64,8.74-2.05,11.31-4.28,18.25-6.73Q128.15,642.61,136.11,634.88Zm9.54,122.06c-5.52-3.66-16.32-3.06-19.79,2.18q6.69-1.92,11.15,3c.81,1.63-6.12,8-6,10.89A31,31,0,0,0,145.65,756.94ZM729.36,689c12.25-.48,9.24-14.69,6.83-20-9.87,3.71,3.27,9.92-2.79,14.37-3.68,2.7-5.74-3.58-6.32-5.61Q712.74,681.86,729.36,689Zm76.12,19.62c2.8,3.83,19.45,2.7,19.08-4.21C824.06,695,806.6,703.43,805.48,708.65ZM461.26,743.13c-12.89,1.15-5.51,15.12,1.39,18.7,1.07-2.61,8.91-15.22,7.23-17.89q-1.17,9.81-9.2,7.83Q454.38,747.86,461.26,743.13Zm59.93-11.66q-3.11,4.46.36,8.6,4.19-5.84,9.52-1.09a18.37,18.37,0,0,0-3-17.61q-10.24-1.1-13.43,9.54c5-2.61,10.33-9,15.25-1.74C536,738.19,522.76,732.92,521.19,731.47ZM216.48,683.39q6.3-5.75,12.17.66,3.32-7.6-4-12.63c-3.82,13.94-16.25-2.63-16.17,13.78Q211.76,679.53,216.48,683.39Zm109.21,65.92c-2.63-4.09-7.19,15.1-1.78,14.9,2-.07,14.24-10.62,14.17-13.33A14.28,14.28,0,0,0,325.69,749.31Zm31.88-40.47c-4.63,10.34-16.91,7.08-9.66-5.71C323.18,703.26,358.54,736.28,357.57,708.84ZM240.15,786.07c-4.23-4.58-6.3-11.9-13.51-4.29,2.47-2.61,12.72,17.24,20.72-5.31C241.08,773.49,244.3,783.92,240.15,786.07Zm502-94,.07,13.79c14.7-12.4-4.52-7.61,19.95-9Q764.53,682,742.14,692.07Zm-571.72,71.2c-1,.26,12.83-2.21,6.43-5.63q-10.08-5.76-21.35-.24C165.59,768,159.73,757,170.42,763.27Zm658-80.38q-5.67,1.25,4,5.41c5.8,2.33,6.09-20.51,2.12-23.09C826.55,675.84,837.41,678.75,828.42,682.89Zm-253-81.53L571.46,609c9.73.82,17.08,13,17-6.89C577,601,589.58,618.79,575.39,601.36Zm107-85.33c.05,9.77,9.92,10.11,16.67,14.62Q698.07,517,682.43,516ZM153.76,656.09c7.19,2.09,36.75,2.77,42.83,1.14C194,655.34,156.59,654,153.76,656.09Zm104.3,96.47q-5.76-13.18-13.62-6.23C236.81,756.52,254.49,754.41,258.06,752.56ZM140.5,785.28c2.95.77,16.1-5.07,16.94-7.76C148.21,772.19,139.33,773.94,140.5,785.28Zm27.44-88.2c1.72-9.45,18.29,5.18,12.24-11.48C178.54,681.09,164.55,690.45,167.94,697.08ZM723.09,787.9c-4.54,3.38-5.86,15.79-4.8,21.13-.24,0,11.23-13.11,14.51-15ZM265.64,731.09c1.26-2.59-30.83-6.33-10.61,11.64C255,740.87,255.76,719.87,265.64,731.09Zm75.77,41.53q-8.88,14,7.09,14.27C348.46,779.34,351.14,771.68,341.41,772.62ZM503.7,799.4l-.09-17c-8.06,8.17-2.76,9.92-15.38,10.68A21.2,21.2,0,0,0,503.7,799.4ZM86.23,709.94q8.11,6.91-1.18,12.13c5.11,1.06,17-10.46,12.69-16Zm471.4-87.86c6.74-8.25,9.1-7.61,9-18.68q-5,7.25-13.53,5.13C561,614.53,548,615.93,557.63,622.08ZM102,702c2.87-7.6,7-10.27,14.94-10.44C116.56,684.47,86.06,688.21,102,702Zm120.75-34a67.77,67.77,0,0,1-9.28-11.28c-4.14,5.65-5.66,5.27-6.05,13.53C207.81,662.47,218.36,671.75,222.78,668ZM324.34,789.28c1.38-9.08,1.08-14.86,11.09-12.13C337.28,760.86,308.26,788.17,324.34,789.28ZM344,795.46,333.4,784.31c-11,17.5,2.72.5,2.55,15.81ZM164.94,713.05c-.81-8-13-6.75-19-7.62q.09,21.17,14.51,13.81-9.18-2.13-10.67-11.38Zm502.59-64.94c-10.35,1.34-20,.48-30.3,1.46C638.08,655.35,665.07,651.79,667.53,648.11ZM241.11,669c-10.5-6.8-3.72,23,2.73,10.88Q250,673.72,241.11,669Zm192.68,77.72-22.52.12c9.63-.32-1.73,16.25,9.47,12C411,752,432.55,748.21,433.79,746.68ZM488,649.74c-4.29-5.26-5.84,3.7-5.31,7.14,1.44,9.46,14.57,1.52,16.57,2.85-4.48-15.66-7.48,1.36-12.69-1.51Q475.16,652.46,488,649.74ZM729.21,787.22l14.12-2.33a13,13,0,0,1-4.62-10.42Q729.89,773.74,729.21,787.22ZM463.31,495.67c-.56-2,3,15.92,11.66,1.57A12.11,12.11,0,0,0,463.31,495.67ZM596.45,704.08c3.43,2.67.54,21,9.07,14.16C612.43,712.66,601.52,702.56,596.45,704.08Zm-114.1-41.73c-19.73,18,5.52,10,4,12.2Q488.55,667.2,482.35,662.35Zm234.78,46.12,4.18-18.92c-1.86-1.47-3.65-.79-5.39,2C722.69,695.57,704.73,705.36,717.13,708.47Zm-604.66-5.12c0,.06-7.69,21.76-.2,16.64,6.45-4.41-6.92-9.81,7.87-9.89ZM220.13,400q-6-6.21-12.61,6.06Q221.84,419.87,220.13,400ZM576.06,785.41c-5.54-2.18-11.41,11.36-8.09,14.36C584.11,790.73,570.41,799.48,576.06,785.41ZM178.24,709.32c-7-11.26,3.24-3,8.91-12.94q-6.43,6-14,1.36C173.53,698.67,172,718.2,178.24,709.32ZM439,736c2.63.23-3.38,24.72,12,2.18C451.72,737.09,440.5,745.84,439,736Zm97.45-133.33q-6.76,11.18,7,7.94c-8.47-6.45-5-7.32,3.31-4.12C546.21,596.35,525.31,597.12,536.45,602.64ZM734.77,807.92c.9-13.73,11.57-7.64,2.66-17.87C733.79,796.73,725.42,803.73,734.77,807.92Zm-573-113c-5-2.28-15.51,1.44-16.51,7.15C153.82,695.3,156.23,706.87,161.8,694.87Zm405.64,7.62q-7.05,15-11-3.21C547.31,701.43,576.09,725.7,567.44,702.49ZM258.93,752.65c5.23,8.61,14.5,6.86,18.1-1.8Zm504.69-99.53q9.58,5,15.34-2.48C777.06,649.44,760.63,645.73,763.62,653.12Zm-95.21,92.93q-5.82,3.08,1.3,10.33C680.65,749.66,680.32,751,668.41,746.05ZM278.71,359.71a14.21,14.21,0,0,0,12.64-3.92C279.48,345.4,279.92,358,278.71,359.71ZM166.22,741.27c-8.58-9.65-8.9,7-5.52,6.93ZM321.86,714.5c-2-8.33-2.22-10.32,4.67-15.52-4.95-.61-13.38,7.25-13.51,12.9Zm52.24,36.6C385.7,764,384.83,733,373.36,742,379,745.82,383.82,747.1,374.1,751.1Zm402,39.79c-.87,11.51,6.61,7.29,10.32,0Zm33.69-135.41c-6.59-.69-3.39,17.87-1.08,15.06C811.84,666.69,811.19,659.82,809.75,655.48Zm-93.91,69.74c.36,1.14,11.84-11.42-3-10.62Q711.51,720.27,715.84,725.22ZM521.6,632.06c1.08-1.66,8-7.31,6.65-9.87C521.33,622.22,512,626.35,521.6,632.06Zm-331.47,117c-.32-1.77-3.41-14.76-2.9-14.79-10.76.8,1.39,9.57-5.65,16.67Zm124.5,53q3.76-5.42-1-12.54C300,797.91,299.9,796,314.63,802.09ZM448.08,499q1-13.33-20-3.32C429,501,445.36,498.21,448.08,499ZM353.52,766.64c5.12-1.46-4.28-15-11.06-6.34Zm41.59-53c-5.81-2.88-6.23-2.65-12.67,6.72C388,721.33,392.28,719.17,395.11,713.62Zm422.3,1c-5.27,8.88-8.7-2.84-14.82,1.13C806.76,721.1,817.84,726.57,817.41,714.67ZM699.18,345c.92-6.2-14.27-3-18.37-3.48A42.19,42.19,0,0,0,699.18,345Zm-520,440.58c-11.22,4.21,8.29,7,12.5,5.71Q188.18,784.67,179.17,785.6Zm199.08-62.05c-3.64,11.56,9.84,11.66,13.37,5.4Q382.53,732,378.25,723.55ZM145.48,764.94q10,7.54,9.22-1.66Q151.37,754.36,145.48,764.94ZM822,656.25c-5-1.46-8.72,11.86-4.79,13.43Q825.44,668.45,822,656.25Zm19.15,131.3c2.08-7.36-7.8-4.49-10.51-1.59C832.22,789.7,837.4,787.8,841.13,787.55ZM193.21,771l10,11.32C203.67,773.51,200.39,769.7,193.21,771Zm258.4,16.77q-8.16.09-.11,12.45Q461.15,793.54,451.61,787.73Zm-329,12.75c-5.26-.44-1.73,16.21,6.44,7.12Zm308.76-37.64q11.81,6.4,7.81-5.93Q433,753.61,431.42,762.84Zm221.25-100.3c5.36,5.39,11.84,3.94,17.92-.1Zm-502.61,66q-15.8,5,2.47,6.44Q157.18,732.13,150.06,728.52Zm97.37,38.76q3.48,6.36,10.17-1.08Q251.33,757.41,247.43,767.28Zm324-155A13.19,13.19,0,0,0,569,623.67C574.48,622.58,576.73,616.85,571.38,612.31ZM462.77,693.08c-3.24,6.65,10.7,7.81,13.7-1.81Q470.81,699.18,462.77,693.08ZM106.2,727.4l16.68-.09C124.69,721.65,106.07,725.28,106.2,727.4Zm29.23,56.81c-1.87-7.1-10.88-8.33-16.05-6.25ZM554.12,596.89c-3.59,5.29,11.27,10.78,8.49,1.81A8.58,8.58,0,0,0,554.12,596.89Zm43.82,121.26c-8.25-3.86-3.81-6.24-3.85-13C588.41,714.17,587.94,720.37,597.94,718.15ZM501.7,743.5q-6.78-6.81-15-1.47C498.66,738.36,491,750.82,501.7,743.5Zm-30-16.57c5.54.5,3.79-17.39,2.07-16.76A29.66,29.66,0,0,0,471.74,726.93Zm274.62,71.81-8.17,11.17Q748.12,809.52,746.36,798.74ZM397.81,757.59l-6.36-6.42Q385,763.89,397.81,757.59Zm-17.74-53.15c-4.93-.49-9-3.83-12.69.65C371.3,705.55,375.42,710,380.07,704.44ZM242.38,767.13q-3-5.43-10.3-.39c-.07-.36,5.49,9.58,4.1,8.61Zm-5.22-16.32c-9.48-6.12-3,8.71-2.07,9.59Zm579.61,47.33c5.55-1.9,6.68-5.42,1.29-8.46A15.3,15.3,0,0,0,816.77,798.14Zm-378-26.87q-11.89-10.1-11.41.41Q433.14,775.43,438.76,771.27Zm-8.58-188.15c1.84-2.92-6-7.92-7.88-5.66Q422.42,589.15,430.18,583.12ZM179.89,732.76l-10.34-5.83C170.19,730.47,174.34,738.47,179.89,732.76Zm13.94,70.18c-2.3.41-9.39-1.42-10.24,1.38Q190.61,813.13,193.83,802.94ZM849,672.71q-4.43-7.08-7.7,2.46Q844.57,682.16,849,672.71ZM159.89,803.28q13.25,12.22,9.81-2.56Q166.16,809.53,159.89,803.28Zm195-64.54q-1.42-6.5,5-6.65C354.76,728.12,344.58,735,354.87,738.74ZM95.32,724.23q10,1.71,5.56-6.33A7.55,7.55,0,0,0,95.32,724.23ZM353.09,799.9c11,2.12,11.12,2.06,9.92-3.82ZM130.71,705.74c-6.75-6.68-6.75-6.68-10.36-.8ZM658,705q-8.21-12.11-8.87,3.07ZM117.88,781.25q-5.72-1.59-3.78,7.13Q126.48,791,117.88,781.25Zm-16.7-114.76c2.91-1.93,8.49,0,7-6.23C103.89,659.85,101,660.74,101.18,666.49ZM837.76,801.31l9.67-3.19C841.6,793.71,838.86,794.72,837.76,801.31ZM461.35,699.87c-.2,0-3.89,18.58,7.36,8.8C461.19,701.63,465.75,726.34,461.35,699.87Zm124.38,106.7q7-.12,5.94-6.84Q583.21,799,585.73,806.57ZM248.92,674.83c5.55-3.8,5.44-6.22-1.53-9.75C248,668.86,248.43,671.73,248.92,674.83Zm92.4,86.8c-1.84-1.87-6.49,3.93-7.52,5Q340.07,775,341.32,761.63Zm65.33-4q5.19-7.32-3.93-10.81C395.29,755.65,406.74,747.18,406.65,757.67Zm-36.55-5.45c-7.82-1.84-3.86,7.56-1.73,10Zm-22-7.92q-6.6-1.78-3.8,10.4Q353.6,754,348.15,744.3Zm-172.76-5q-5-1.44-4.89,7.13C180.17,747.85,175.43,746.06,175.39,739.27ZM533.77,673q6,2.28,3.57-6.15Q530.89,662.64,533.77,673Zm-312-318.5q7.37.35,1.54-8.73Q216.43,345.46,221.76,354.46ZM443.41,101.7c3.18.72,6.61-13.52,3.15-14.29ZM77,715.57c2.1-1,5.66-7.48,4.25-9.49Q74.26,708.66,77,715.57Zm117.43,10c5.17-3-6.3-4.83-7.45-4.72Q187.52,725.76,194.47,725.6ZM106,786.08l-8.49,1.58C102,791.53,103.83,791.21,106,786.08Zm22.8-114.3q-8.34-6.88-6.7,3.7Q125.74,678.9,128.82,671.78Zm546.49,71.77c-.74-7-2.32-8.38-7.4-7Zm-86.37,40.18c-7-3-3.24,6.41-1.92,8.29ZM170.33,773.6c2.37-5.2-8.67-4.2-9.5-4.14Q163,774.44,170.33,773.6ZM569.41,745q-2.77,7.75,3.86,5.41Q576.38,742.87,569.41,745Z"/><path d="M736.27,522.11q-2.5-6.65,2-10.91c13.1,16.28,28.24,8.76,47.09,21.72-5.08,16.12-60.6,33.64-68.85,16.43-3.34-7,16.35-4,17.15-5.71C717.63,532.59,701.2,522.29,736.27,522.11Zm-.53,21.65c-.28,7,26.81.08,30.54-5.28A67.2,67.2,0,0,0,735.74,543.76ZM752.8,530l-23.92.13C733.32,538.53,745.83,539,752.8,530Z"/><path d="M724.13,593.06c.87,16.75-86.58,10.39-88.4,3.29C628.12,566.54,718.93,592.12,724.13,593.06Z"/><path d="M113.46,589.05q12.63-6.57,25.6-3.53c1.38,9.69-34.44,11.73-38.91,11.2-2.39-6.18,8.51-6.51,11.07-7-.36-3.8-7.36,1.4-7.07-4.55.07-1.53,33.21-19.15,23.87-22.32,18.19-11.62,26.23-32.69,50.4-30.37C182.77,548.85,111.35,581.24,113.46,589.05Z"/><path d="M839.78,543.31c9,8.82,51.86,42.9,42.36,52.74-5.9-3.35-91.41-9.9-91.43-9.71.83-8.3,64.24-8.12,72.17-5.4C859.11,575.22,831.94,548.08,839.78,543.31Z"/><path d="M348.66,589.85c-7.72,11.66-63.78,4-71,1C285.55,579.94,337.41,577.24,348.66,589.85Z"/><path d="M158.89,589.83c-9.2-6.72,22.38-27.87,25.18-36.22,4.47-13.3-15.42-39.56-1.92-51C208.09,533.35,177.7,568.75,158.89,589.83Z"/><path d="M216.68,579.78c8.51-10.54,23-1.75,24.71,9.57C242.23,595,218.26,580.74,216.68,579.78Z"/><path d="M823.16,521q16.17-2.87,19.94,9.06C835.44,533.24,808.78,527.13,823.16,521Z"/><path d="M281.34,384.25c10.24,13.8-10.87,14.26-10.79,6.56Q273.93,384.55,281.34,384.25Z"/><path d="M213.72,445.6q-2.26,7.83-10.39,7.41C200.24,446.52,209.35,436.76,213.72,445.6Z"/><path d="M188.92,564.46a17.88,17.88,0,0,1,6.45,11.27C192.78,581.42,184.86,570,188.92,564.46Z"/><path d="M772.68,552.09c-.37,4.75-5,7.61-11.89,7.67C759.85,554.15,763.64,551.61,772.68,552.09Z"/><path d="M198.53,581.66q8,5.75-.05,10.15C196.42,589.07,192.48,582.45,198.53,581.66Z"/><path d="M208.21,582.09q9.07,4.93-1.36,9.74Q200,587.22,208.21,582.09Z"/><path d="M781,499.86a7.15,7.15,0,0,1,4.87,7.71C784.34,510.68,774.2,504.23,781,499.86Z"/><path d="M716.31,558.69q-4.9,10-9,0Q713.72,552.76,716.31,558.69Z"/><path d="M247.94,574.5q.45,10.54-5.18,4.36Q242.82,570.82,247.94,574.5Z"/><path d="M263.16,328.21q-4,6.5-6.85.58Q261.17,322.81,263.16,328.21Z"/><path d="M655.7,545.56q6,5.9-.21,6.56Q649.87,546.76,655.7,545.56Z"/><path class="cls-1" d="M565.75,271.87c-37.23.19-93.32-5.56-98.62,38.19-4.23,34.93,24.06,58.67,55.22,70.14,39.68,14.6,87.35-.33,61,62-2.1,5-36.17,24.84-32.79,34.86,2.9,8.58,38.08,12.42,45.33,24.11,16.27,26.26,8,58.09-13.51,77.65-6-17.88-.78-21.3-9-34.33-6.28-9.9-23.09-18.59-31.28-28.36,14.13-.08,37.9-.86,31.19-17-9.66,5.48-32.87,15.11-43.61,4.59-20.95-20.51,9-22.12,11.79-25.66,5.07-6.46,21-15,23.68-27,3.65-16.51-8.87-21.77-8.61-33.33.34-14.69,29.81-9.68,3.85-26.73-14.07-9.24-51.59-4.46-70.61-13.86-31.52-15.58-35.63-27.23-45.06-50.32-8.8-21.54-19.52-8.11-5.55-31.15,7.36-12.13,30.92-10.19,33.42-29.36,1.89-14.54-19.32-18-14.95-36.63,4.47-19.06,23.81-15,39.79-22.47,13-6.06,35.11-14.82,36.24-32.65,1.1-17.14-13.84-20.64-19.51-35.93-4.4-11.88-1.3-26.35-6.73-40.16C501.05,82.23,478,70.39,487.64,48.31c-.12,0,35.46,60.54,33.37,57.13,7.3,11.9,7.08,20.28,20.46,34.51,9.45,10.06,27,14.75,37.6,24.37-.41.07-29.1,23.09-30,24-3.81,3.92-1.68,18.12-3.45,19.31-11.9,8-30.41,2.49-41.22,10.08C447.63,257.59,565.2,273.12,565.75,271.87ZM532.2,485.17c5,2.16,43.84,17.36,45.61,8.51C578.92,488.17,539.16,478.4,532.2,485.17Zm-63-254.42q4.8-10.44-2.17-7.45Q463.79,228,469.21,230.75Z"/><path class="cls-1" d="M335.67,244.87c11.35-24.77,58.12-31.29,80.09-37.93,42.4-12.82,38.68-32.82,41.25-65.64,36.22,49.23-.09,51.92-39.22,73.33-73.14,40,36.7,29.64,27.84,43.79-7.25,11.58-41.74,22.95-54.36,35.24-15.85,15.42-27.22,28.39-31.06,50.18-7.62,43.21,8.44,45.25-23.78,80.79-4.2-14.09,14.82-46.86,16.58-62.48,3-26.67-10.1-35.2,5-61.27,10.44-18,37.29-11.65,19.11-37.27C365.9,247.75,345.24,270.22,335.67,244.87ZM466.19,167.5q4.26-7.89-3.83-10.36Q464.16,162.36,466.19,167.5Z"/><path class="cls-1" d="M390.83,704.44c1.06-3.51,7.9-2.93,11.48-5.59-16.22-13.5-71,9.3-70.13-15.79,49.25,40,24.68-65.07-9.53-36.28-12.68-38.08,58.76-25.18,71.07-2C381.19,651.05,362.92,661.6,374,681c5.76,10.06,61.44,14.41,26.23,23a19.7,19.7,0,0,0,12.61,4.87c-2.17,5.53-6.66,8.11-.58,12.22,10.13,6.86,4.67-32.16,4.16-30.07-.91-.82,12.57,9.18,9.86.35-1.18-3.84-7.46-.49-8.25-4.42q4.89-5.11,12.1-3.32c9,7.08-2.5,15.93-6.29,17.73,4.08,8.22,24.08,6.49,28.61.31,11.1,24.7-28.22,2.5-27.28,12.12,2.41,24.66,70,12.31,84.47,7.33-.5,10.74,15.06,42.76-3.9,38.45.82-32-2.15-16.63-32.24-20.49-19.44-2.5-35.16-15.17-54.87-16.5q-.27,12.57,14.84,8.19-1,3.42-2.26,6.74c-21.51,1.41-11.11-10.21-30.16-9.34a10.07,10.07,0,0,0,9,6.85q-7.47,17.09-19.76,10.4C377.53,731.52,415.74,721.64,390.83,704.44Z"/><path class="cls-1" d="M749,667.19c-35.68-3-30.73,45.46-67.46,30.13,6.18-27.15-22.06-51.27,2.76-65.67,7.76-4.51,79.26-5.63,74.36,18.92-1.5,7.54-16.87,2.26-18.25,12.4C739.51,669.24,749.28,663.52,749,667.19Z"/><path class="cls-1" d="M566.83,662.3c-43.48-35.55,46.28-44,66.56-13.22a24.9,24.9,0,0,0-17.21,10.34c-.6,6.53,17.44,1.79,20.64,3.42-11.52,15-15-7.65-22.31,14.52-4,12.09,8,18.43,6.62,30.41,13.08-1.64,5.35-2.23,22.43,7.49-11,8.81-22.44-.92-33.19,5,3.83-19.49,4.2-35.84-5.79-47.93C599.47,666.18,574.46,651.08,566.83,662.3Z"/><path class="cls-1" d="M496,490.58c14,4.15-2,10.7,9.45,16.2-3.13,1.35-20.47,56.37-24.72,21.07-21.24,12.94,8.9,18.8-26.65,23.6-36.65,4.94-42.27-12.31-23.19-32.85C464.13,482.83,493.18,556.9,496,490.58Zm-36.9,27.8q-5.44-9-10.68.32Q452.71,528.55,459.1,518.38Z"/><path class="cls-1" d="M470.33,690.49c-8.91-1.82-25.87,1.88-29.69,5.79-1.4-.86,7-33.26,7.34-38.34,1.34-18.05-37.82-4.81-3.84-30.77,8.3-6.34,46.85,1.36,55.13,3.09a45.92,45.92,0,0,0-27.1,34.52c-5.4,31.16,16,6,25.79,2.62.51.79-10.63,30.81-10.45,30.78C482.19,699,482.09,673.59,470.33,690.49Z"/><path class="cls-1" d="M827,667.45c-7.36-20.78-19.42-4.61-23.81-10.8-3.61-5.09-22.11-6.68-1.76-22.38-1.51,1.16,65.08-1.64,67.08.58,24.72,27.46-2.88,16.56-5.79,27.45-5.47,20.5-28.1,28-27.86,46-9.62-2-16.32-22.4-31.05-7.71-5.14-7.1,3.72-21.32,10.73-22.13a9.77,9.77,0,0,1-3.27,10.31C824.08,734.2,873.06,624.74,827,667.45Zm-15.45-19.54q19.07,4.9,28.4-7.56C832.43,635.12,808.09,636.16,811.51,647.91Z"/><path class="cls-1" d="M258.51,623.9c18.65,27.63-3.66,15.92-3.53,41.33-18.18-11.92-46.87-9.77-66.92-24.15C207.47,619.47,230.9,624,258.51,623.9Z"/><path class="cls-1" d="M752.35,719.76c-2.56,14.35.33,31.1,15.29,38.23,11.84,5.65,40.8-11.07,42.53-8.68-2.61,2.29-9.77,17.79-2.19,19.41-23,25-25.16-18.21-47.46.18-.12-21.63-16.52-19.34-23.87-31.76-5.29-8.92,14.48-22.9-8.92-28.71-2.34,20.21-4.43,37.68-25,51.11-.1-20.13-6.21-16.61-24.2-18,10.7-12.24-27.84-10.57-29.78-14.49,16-5.55,26.64-32.08,36.32-7a13.15,13.15,0,0,0-9.54,1.88c7.69,14.18,15.27,17.61,28.06,14.15,15.75-4.26,34.9-32.84,31.72-41.29C738,701.87,737.09,722.59,752.35,719.76Z"/><path class="cls-1" d="M248.85,702.64q-15.45-6.43-22.8,5.49c13.86,6.12-4,2.88-3.83,14.08.12,10.21,12.48,18.63,16.74,3.76-4.46-4.07-18.2,95.44-35.36,42.29a16.42,16.42,0,0,0,13.52,2.36c2.88-1.37-11.84-22.71-16.45-19.74a9.85,9.85,0,0,0,1.27,8.81,45,45,0,0,1-12.64,0c-2.2,2.33,35.11-22.29,33.85-13.54-1,6.73-7.5-28.79-7.82-29.94,2.25,7.94,3.17-48.31-8-19.55-.05.12,7.39,14.67,2.32,14-13-1.74-31,15.32-18.32-10.55a37,37,0,0,1,7.09,9.48c11-23,20.19-11.8,36.58-23.8-3.6,21.16,7.48,13.06,24.44,9.6C258.66,703.12,252,717.49,248.85,702.64Z"/><path class="cls-1" d="M283.3,719.73c-13.64,1.44-18.69,1.65-10.8-10.2l-6.7,0c-1.2-11.61,21.67-5.09,30.54-6.21-5.52,14.57,1.2,5.93,1.71,12.82q.13-9.07,7.11-12.83c-5.43-.82,24.95,16.32,21.15,14,2.67,1.6,25.41,0,20.91,14.67-.12-.12-39.64-10.66-34.61.12,2.76,5.94,25,9.64,29.4,11.27-29.26.16-19.95,17.47-34.92,21.85,1.23-16.23-2.54-16.17-14.12-24.39,3.88-1.65,12.45-2.62,12.85-8.41.56-8.1-10.1-2.06-11.49-6.28,2.28-1.73,23.71,0,10.8-10.55,5.38,4.38-26.91-8.79-26-8.52Q277.68,714.24,283.3,719.73Z"/><path class="cls-1" d="M590,724.5c-1,.24-28.24,16.66-27.88,6.55.42-11.92,5.06,4.36,12.61-4-5.55-10.37-16.25,5.09-18.82-7.22,32.74-3.48,10-37.4-10.32-15.22-8.66-16.44,20.45-16.65,32.32-13.1-1.06-5.83.11-7.11,6.18-9.1-2,4.18-9,15.62-9.3,17.06-2.3,9.54,8.86,2.47,11,3.82C584.45,702.4,590.32,727.89,590,724.5Zm-9.73-2.17q2.47-5.08-5-5.29Q571.12,726.07,580.26,722.33Z"/><path class="cls-1" d="M851,725.41a49.41,49.41,0,0,1,25.27,6.46c-7.29-3.84-4.94,14.66-8,15.39-6.37,1.51-3-12.07-2.88-14.54-6,1.83-19.9,3.06-20,11-12.49-16.25-14.92,16.39-28.82,7.86a46,46,0,0,1,.56-12.67c11.54,7.93,13.84.25,20.68-9.26-.81-6.88-16.41-1.42-15.44-11.75-.21,2.26,26-3.52,31-2.63-.1.55-20.69,19.58-8,20.08Q851.26,732.77,851,725.41Z"/><path class="cls-1" d="M668.51,329.61q8.65,2.14,14.52-4.3c-11.89-10-73.9,5.41-72.38,7.88-14.46-23.39,155.13-22.66,107.47,30-6-11.66-2.87-24.95-15.81-32.36C693.9,326,669.29,338.46,668.51,329.61Z"/><path class="cls-1" d="M83.81,757.07q-4.62,6.4-10.48,1.09c3.66-10.76,5.84,2.91,12.14-5.06-1.14,1.45-9.37-12.55-10-15.86,9.6,4.2,27.39.7,30.92,9.06q-10.89-4.08-10.65,6.46c2.25,1.52,22.07-10,17.8,3.49-9.89-1.07-14.37,3.08-23.78,4.47A12.61,12.61,0,0,1,94,768.26a16.09,16.09,0,0,0-11.86.06c-.56,2.57,17,19.12,2,19.2q4.11-8.24-5-8.66c-.47.1-2.42,15.48-5.24,11.26C63.59,774.57,87.5,764,83.81,757.07Z"/><path class="cls-1" d="M333.14,664.76l3.91-9.31c9.4,3.81-1.14,23-11.72,20.64-4.72-1.08-4.22-7.84-14.26-9.21-2.4-.32-44.55-11.12-43.52-10.26,19-3.94,36.72.39,56-5Q319.91,660.2,333.14,664.76Z"/><path class="cls-1" d="M792.74,749.66q-1.15-7.83-8.47-6.22a19.31,19.31,0,0,0-.68,12.79c-.4-.34-16.13-24.69-21.71-11.57,6.1-14.34,16.47-8.9,32.45-20.85C796.92,729.91,795.61,745.47,792.74,749.66Z"/><path class="cls-1" d="M194.63,400.61c-5,9.52-24.55,20.42-35.78,18.53,9.25-6,60-44.32,68.87-38.36C222.28,386.5,202.28,403.13,194.63,400.61Z"/><path class="cls-1" d="M461.25,480.23l15.14,5.35c-.95,4-47.47,7.37-47.88-3.6,11.77.95,21.18-14.11,27.21-11.86C462.07,472.48,452.61,483.14,461.25,480.23Z"/><path class="cls-1" d="M788.13,777.46c-2.28,3.93-15.63,17.33-19.58,17.52-19.83.95,2.14-20.05,3.63-19.17q-4.84-3.18-7.23,1.85C757.83,762.22,785.54,776.07,788.13,777.46Z"/><path class="cls-1" d="M589.43,724.64c6.53.18,13-.25,19.57-.28-5.45,5.82-9.54,5.65-17.65,3.07,1.45,7.72,30.18,30.39,5.67,35.65,9.5-28.87-2.34-7-21.86-22.12C590.48,739.65,582.45,732.23,589.43,724.64Z"/><path class="cls-1" d="M385.89,788.41q7.16-12.33.83-25.87c6.84.63,24.56,5.19,29.28,1.49,5.84-4.59-16.64,31.22-7.87,3.35C400.34,764.74,391.22,785.68,385.89,788.41Z"/><path class="cls-1" d="M366.76,776.54c-5.05-6.92-7.62,4.83-8.31,7.9C359,782.15,367.15,786.82,366.76,776.54Zm13-5.2c-7.47-11-7.59,6.63-5.29,6.59Z"/><path class="cls-1" d="M523,675.68c-27.09,6-16-22.06-7.65-20.07C519.35,656.57,534.09,677.06,523,675.68Z"/><path class="cls-1" d="M732.52,766q-7.54-2.34-7.72,5.47c-7.92-3.09,1-33.59,7.92-36.48-1.64,9.57,7.8,5.83,12.54,12.79C729.7,755.26,733.19,747.24,732.52,766Z"/><path class="cls-1" d="M858.06,707.31c15.07,0,3.54-20.48,20.91-5.16-5.34,3.3-9.49,12.86,2.87,10.25q-.27,10.35-8,12.66C867.61,715.69,860.61,718.37,858.06,707.31Z"/><path class="cls-1" d="M198.41,385.5c-10.95-16.67,10.35-15.91,8.85-23.57a13.39,13.39,0,0,0-8.75-5.65c6.58-12.58,9.29-.46,18.8-1.69C208.24,369.94,213.35,375.9,198.41,385.5Z"/><path class="cls-1" d="M173.29,642.2c-18.13-2.87-22.38,6.87-38.35,13.25-.05-9.43,6.32-17,6.58-31.66C138.4,624.86,173,644.22,173.29,642.2Z"/><path class="cls-1" d="M509.87,698.71c1.67-12,37,6.39,9.32,17.22-4.85-5.79,10-14.53,1.58-17.25-2.34-.76-15.27,18-17.47,5.52Z"/><path class="cls-1" d="M419.28,566.67l-4.46-11c10.84,2.48,26.32,4.82,35.92,9.07q-7,7.95.18,15.94a13.46,13.46,0,0,1-11.34-1.34C434.68,566.72,446.23,566.53,419.28,566.67Z"/><path class="cls-1" d="M277.77,679.74c6.85,4.35,11.8,1.58,18.82,5.25C319.64,697,252.2,696.9,277.77,679.74ZM288.51,685q-5.85,3.84-.4,7.43Q295.28,688.78,288.51,685Z"/><path class="cls-1" d="M770.09,698.65c5,8.42-8.32,18-11.69,25.67C749.49,692.37,750.24,726.92,770.09,698.65Z"/><path class="cls-1" d="M105.56,760.55c8.54,9.49,16.32,22.84-10.33,19.67Q94,767,105.56,760.55ZM102.1,777.6q8.31-.92,8.43-7.83C110,768.35,87.52,769,102.1,777.6Z"/><path class="cls-1" d="M260.17,743.94c6.95-16.71,2.79,4,13.41-2.71,2-1.26-2.69-11-4.26-13.68l12.12-.07c-15.92,11.37,6.42,3.12,4.12,10.45Q280.22,753.23,260.17,743.94Z"/><path class="cls-1" d="M543.47,628.5l-5,9.29Q546.36,640.1,550,631c2.15,5.8-9,15.4-9,14.64C540.65,655,519.37,612.5,543.47,628.5Z"/><path class="cls-1" d="M548.48,735.83a36.94,36.94,0,0,1,16.76,12.57C558.2,747.51,536.08,756.92,548.48,735.83Z"/><path class="cls-1" d="M104.21,656.7q2.88-10.11-7.82-6.81c6.73,18.17,1.24,1.26-8.66,9.18C81.14,647.24,104.82,641.76,113,638,112.51,648.24,110.17,648.22,104.21,656.7Z"/><path class="cls-1" d="M476.05,783.55c-5.39-31,18.45-2.79,21.84-.85-30.39,10.57-3.53,1.46-16-7.23A71,71,0,0,1,476.05,783.55Z"/><path class="cls-1" d="M306.38,684.35q17-7.58,18.87,7.16C315,687.12,309.18,713.19,306.38,684.35Z"/><path class="cls-1" d="M204.11,683.35q-5.07-6.44-9.22,0Q199.06,690.29,204.11,683.35Z"/><path class="cls-1" d="M266.7,778.78c10.21,6.83,5.66-10.24,11.84-9.28,2.34,16.62-.81,15.86-12.84,23.53-1.55-10.34-10.26-1.7-18.43-6.24Q259.91,790,266.7,778.78Z"/><path class="cls-1" d="M787.3,796.84c9.58-11.68,11.8-24.11,26.6-5.59C814.81,790.29,789.71,797.61,787.3,796.84Z"/><path class="cls-1" d="M863.75,816.86c-4.08-5.3-8.85-3.28-13.69.65-.49-2.64,2.75-24.49,8.71-21.74C862.82,797.63,867.52,813.88,863.75,816.86Z"/><path class="cls-1" d="M307.87,784.13c-6.23-.78-18.8,16.3-21.82,6.7-3.75-11.92,18.48,1.1,5.05-14.15C295,774.43,315.06,778.44,307.87,784.13Z"/><path class="cls-1" d="M358.48,432.76c-16.65,8.08-34.2-.84-51,3.45C309.1,428.9,355.46,428.72,358.48,432.76Z"/><path class="cls-1" d="M699,488.15l-15.72-7C693,468.63,707.47,472.59,699,488.15Z"/><path class="cls-1" d="M822.42,814.93q-11.26,3.39-15.33-7.66c-1.56,3.35-8.57,17.11-14.27,7.09C789.21,808,817.18,802.51,822.42,814.93Z"/><path class="cls-1" d="M189.51,765.62c-2.64,9.72-11.39,11.42-24.72,16-2.18.76,4.57,8.75,3.65,10.26C143.62,784.65,178.22,770.57,189.51,765.62Z"/><path class="cls-1" d="M365,712.52l12.43,2.17C370.16,730.35,352.31,732,365,712.52Z"/><path class="cls-1" d="M157.38,683.8c-27.07,21.8,2.55-3.6-16,3.52-7.45,2.85,6.38,7.64-7,11.12C144,696,130.79,671.43,157.38,683.8Z"/><path class="cls-1" d="M434.8,660.68c-.57,0-47.63,2.87-49.75-1.07C392.13,655.3,435.45,655.91,434.8,660.68Z"/><path class="cls-1" d="M122.45,695.62q3.63-11.86-8.7-13.4c11.07-12.35,14.48,1.9,20.07-20C148.43,665.57,123.5,694.22,122.45,695.62Z"/><path class="cls-1" d="M241.7,707.14a38.58,38.58,0,0,1,12.2,15.67C238,724.16,232.74,723.55,241.7,707.14Z"/><path class="cls-1" d="M409,491.89c-3.94,16,3.39,29.38,1.36,45.1C403.36,537,398.83,497.51,409,491.89Z"/><path class="cls-1" d="M274.46,760.4c2.17-1.43,34.19-17.15,28.51-.14-3.44,10.29-10.7-20.43-18.49,9.72Q284.91,759.14,274.46,760.4Z"/><path class="cls-1" d="M790.06,713.54q-4.95-8-14.52-7.33c4.11-11.72,18.83-7.06,22.54,4.11A15.73,15.73,0,0,1,790.06,713.54Z"/><path class="cls-1" d="M503.86,630.45q11-.74,15.3,9.62c-8.28.36-16,2.39-24.86,2.44C495.5,636.39,507.39,632.83,503.86,630.45ZM505,638c5.84.49,6.51-.24,5.57-5.79C506.07,631.36,504,633,505,638Z"/><path class="cls-1" d="M82.13,672.82c-8.78-6-10.59-6.06-6.09-16.18,4.69,4,18.37,21.27,26,18.11C99.57,676.3,81,676.88,82.13,672.82Z"/><path class="cls-1" d="M809.11,737.71q-11.67-1.14-7.49-11.84C808,714,833.88,740.29,809.11,737.71Zm-1.9-3q3.48,3.63,6.55-3.81Q804.67,723.66,807.21,734.76Z"/><path class="cls-1" d="M586.2,683.08q4.45-8.43,12.74-9.6c-.62,0,24.65,18.5,2.48,17a84.55,84.55,0,0,0-.34-8.86C591.32,683.93,593.73,691.43,586.2,683.08Z"/><path class="cls-1" d="M350.41,665.34q-5,2.7.85,6.82Q359.47,668.16,350.41,665.34Z"/><path class="cls-1" d="M845.59,700.09a12.12,12.12,0,0,1,8.41-7.17c-4.48,9.08,7.13.82,4.44,10.35q-6-5.12-11.21-1.4a32.32,32.32,0,0,0,4.85,6.77q-8,2.29-13.9-3.85Q837.06,694.41,845.59,700.09Z"/><path class="cls-1" d="M568,678.19q-2.64-9.47,4.44-15.84c-1.71.58,18.65,5.24,17.07,3.64C596.22,672.8,569.35,670.15,568,678.19Z"/><path class="cls-1" d="M618.14,739.5c-18,4.79-8.68-10.79,6.33-11.85q2.07,8.9-3.45,15c-4.28-4.54-1-2.38.63-9.92C612.26,734.2,618.78,735.05,618.14,739.5Z"/><path class="cls-1" d="M86.09,731.14Q74,735.82,74.36,725.71c3.09-8.05,25.44,5.51,24.68,8Q94.74,742.68,86.09,731.14Z"/><path class="cls-1" d="M753.52,780.11c1.81-9.14-15-6.63-13.66-10.14a12,12,0,0,1,6.88-4.64c-2.86-5.69-5.49-2.26-10.81-2.75C742,749,762.68,771.9,753.52,780.11Z"/><path class="cls-1" d="M491,761.44a21.64,21.64,0,0,0-15.13.06c-1.51-6,1.81-11.21,2.13-17.57C484.2,749.36,498.39,747.55,491,761.44Zm-6.76-11.59q-8,5,.15,7.42Q493.44,754.36,484.24,749.85Z"/><path class="cls-1" d="M678.27,497.87c7.18,5.25,20.34,8.89,21.33,18.48C689.22,516.12,675.94,509.46,678.27,497.87Z"/><path class="cls-1" d="M138.27,714.85c-15.46-1.54,1.77,4.18,5.91,6.12-6.65,11.07-21.85-.4-15-7.1C133,710.13,141.06,705.51,138.27,714.85Z"/><path class="cls-1" d="M681.35,767q2.16-13,13.87-11.78c2,1,5.81,16.81-1.53,15.81-15.28-2.08,7.85-12.28-1.91-11.73C686.89,759.59,687.72,773.29,681.35,767Z"/><path class="cls-1" d="M151.47,743.16c-6.74,7.37-28.88,10.7-35.82,2.38Z"/><path class="cls-1" d="M535.69,714.34c7.68,3.41,7.83-7.07,12.84-5.93,5.29,1.2-3,20.57-9.21,15.93Z"/><path class="cls-1" d="M456.89,559.16c14.41.74,31.63,8.18,10.94,24.2C474.13,588.9,459.34,544.38,456.89,559.16Z"/><path class="cls-1" d="M136.11,634.88q-8,7.73,1.55,11.25c-6.94,2.45-9.51,4.68-18.25,6.73-2.16-2-3.71-15.33,1.82-15.64,4.68-.27.45,9.28.37,11.44C130.13,648.09,131.36,633,136.11,634.88Z"/><path class="cls-1" d="M145.65,756.94A31,31,0,0,1,131,773c-.11-2.85,6.82-9.26,6-10.89q-4.47-4.9-11.15-3C129.33,753.88,140.13,753.28,145.65,756.94Z"/><path class="cls-1" d="M729.36,689q-16.62-7.17-2.28-11.25c.58,2,2.64,8.31,6.32,5.61,6.06-4.45-7.08-10.66,2.79-14.37C738.6,674.34,741.61,688.55,729.36,689Z"/><path class="cls-1" d="M805.48,708.65c1.12-5.22,18.58-13.63,19.08-4.21C824.93,711.47,808.38,712.61,805.48,708.65Z"/><path class="cls-1" d="M461.26,743.13q-6.88,4.73-.58,8.64,8,2,9.2-7.83c1.68,2.67-6.16,15.28-7.23,17.89C455.84,758.3,447.79,744.33,461.26,743.13Z"/><path class="cls-1" d="M521.19,731.47c1.57,1.45,14.76,6.72,8.68-2.3-4.92-7.29-10.27-.87-15.25,1.74q3.18-10.63,13.43-9.54a18.37,18.37,0,0,1,3,17.61q-5.33-4.76-9.52,1.09Q518.09,735.93,521.19,731.47Z"/><path class="cls-1" d="M216.48,683.39q-4.72-3.87-8,1.81c-.08-16.41,12.35.16,16.17-13.78q7.29,5,4,12.63Q222.77,677.65,216.48,683.39Z"/><path class="cls-1" d="M325.69,749.31a14.28,14.28,0,0,1,12.39,1.57c.07,2.71-12.21,13.26-14.17,13.33C318.5,764.41,323.06,745.22,325.69,749.31Z"/><path class="cls-1" d="M357.57,708.84c1,27.12-34.69-5.58-9.66-5.71C340.66,715.92,352.94,719.18,357.57,708.84Z"/><path class="cls-1" d="M240.15,786.07c4.15-2.15.93-12.58,7.21-9.6-6.37,18-20.84,5.44-20.72,5.31C233.85,774.17,235.92,781.49,240.15,786.07Z"/><path class="cls-1" d="M742.14,692.07q22.38-10.12,20,4.78c-22.94,1.31-6.32-2.48-19.95,9Z"/><path class="cls-1" d="M170.42,763.27c-10.69-6.3-4.83,4.69-14.92-5.87q11.28-5.52,21.35.24C183.25,761.06,169.42,763.53,170.42,763.27Z"/><path class="cls-1" d="M828.42,682.89c9-4.14-1.87-7,6.12-17.68,4,2.58,3.68,25.42-2.12,23.09Q822.76,684.13,828.42,682.89Z"/><path class="cls-1" d="M575.39,601.36c14.19,17.43,1.65-.38,13.05.78.11,20.54-7.67,7.68-17,6.89Z"/><path class="cls-1" d="M682.43,516q15.65.93,16.67,14.62C692.35,526.14,682.48,525.8,682.43,516Z"/><path class="cls-1" d="M153.76,656.09c2.83-2.05,40.26-.75,42.83,1.14C190.51,658.86,161,658.18,153.76,656.09Z"/><path class="cls-1" d="M258.06,752.56c-3.57,1.85-21.25,4-13.62-6.23Q252.3,739.39,258.06,752.56Z"/><path class="cls-1" d="M140.5,785.28c-1.15-11.06,8.23-12.79,16.94-7.76C156.28,781.25,143.38,786,140.5,785.28Z"/><path class="cls-1" d="M167.94,697.08c-3.39-6.63,10.6-16,12.24-11.48C186.23,702.26,169.66,687.63,167.94,697.08Z"/><path class="cls-1" d="M723.09,787.9,732.8,794c-3.28,1.89-14.75,15-14.51,15C717.23,803.69,718.55,791.28,723.09,787.9Z"/><path class="cls-1" d="M265.64,731.09c-9.88-11.22-10.62,9.78-10.61,11.64C235.67,725.52,267.65,726.94,265.64,731.09Z"/><path class="cls-1" d="M341.41,772.62c9.73-.94,7,6.72,7.09,14.27Q332.54,786.61,341.41,772.62Z"/><path class="cls-1" d="M503.7,799.4a21.2,21.2,0,0,1-15.47-6.33c12.62-.76,7.32-2.51,15.38-10.68Z"/><path class="cls-1" d="M409,492q-3.3-8.65-7-4.63c-.1-18.65,21.7,3.58,21.5,4.23C411.93,486.83,417.52,491.09,409,492Z"/><path class="cls-1" d="M86.23,709.94l11.51-3.85c4.26,5.52-7.58,17-12.69,16Q94.35,716.87,86.23,709.94Z"/><path class="cls-1" d="M557.63,622.08c-9.63-6.15,3.41-7.55-4.49-13.55q8.52,2.12,13.53-5.13C566.73,614.47,564.37,613.83,557.63,622.08Z"/><path class="cls-1" d="M197.92,730.5l8.91-9c2.62-2.47,2.48,18-.31,17.91q-9.56,1.21-8.56-9,2,7.33,8.16,1.75Q202.88,725.62,197.92,730.5Z"/><path class="cls-1" d="M102,702c-15.51-13.42,14.48-18.49,14.94-10.44C109,691.76,104.9,694.43,102,702Z"/><path class="cls-1" d="M222.78,668c-5.33,4.53-14.93-6.23-15.33,2.25.39-8.26,1.91-7.88,6.05-13.53A67.77,67.77,0,0,0,222.78,668Z"/><path class="cls-1" d="M241.59,690.28q2.07-10.46,13.85-15,5.74,9.48-1.49,16.21C246.15,683.57,249.05,687.3,241.59,690.28Z"/><path class="cls-1" d="M324.34,789.28c-17.29-1.19,13-28.86,11.09-12.13C325.42,774.42,325.72,780.2,324.34,789.28Z"/><path class="cls-1" d="M344,795.46,336,800.12c.17-15.31-13.56,1.69-2.55-15.81Z"/><path class="cls-1" d="M164.94,713.05l-15.18-5.19q1.49,9.24,10.67,11.38-14.42,7.35-14.51-13.81C151.94,706.3,164.13,705.06,164.94,713.05Z"/><path class="cls-1" d="M667.53,648.11c-2.46,3.68-29.45,7.24-30.3,1.46C647.55,648.59,657.18,649.45,667.53,648.11Z"/><path class="cls-1" d="M241.11,669q8.85,4.75,2.73,10.88C237.39,692,230.61,662.16,241.11,669Z"/><path class="cls-1" d="M433.79,746.68c-1.28,1.58-23.41,4.9-13.05,12.12-11.2,4.25.16-12.32-9.47-12Z"/><path class="cls-1" d="M488,649.74q-12.83,2.71-1.43,8.48c5.21,2.87,8.21-14.15,12.69,1.51-3.93-2.61-13.62,8.72-16.57-2.85C482,654.38,484.19,645.08,488,649.74Z"/><path class="cls-1" d="M729.21,787.22q.67-13.49,9.5-12.75a13,13,0,0,0,4.62,10.42Z"/><path class="cls-1" d="M463.31,495.67A12.11,12.11,0,0,1,475,497.24C466.71,510.93,462.78,493.8,463.31,495.67Z"/><path class="cls-1" d="M596.45,704.08c5.07-1.52,16,8.58,9.07,14.16C597,725.13,599.88,706.75,596.45,704.08Z"/><path class="cls-1" d="M482.35,662.35q6.19,4.86,4,12.2C487.87,672.36,462.62,680.37,482.35,662.35Zm-.51,2.88c-7.42,7.74,2.23,6.73,1.52,8.89Q486.81,669,481.84,665.23Z"/><path class="cls-1" d="M717.13,708.47c-12.4-3.11,5.56-12.9-1.21-16.89,1.74-2.82,3.53-3.5,5.39-2Z"/><path class="cls-1" d="M112.47,703.35l7.67,6.75c-14.79.08-1.42,5.48-7.87,9.89C104.78,725.11,112.43,703.41,112.47,703.35Z"/><path class="cls-1" d="M220.13,400q1.71,19.88-12.61,6.06Q214.15,393.78,220.13,400Z"/><path class="cls-1" d="M576.06,785.41c-5.65,14.07,8.05,5.32-8.09,14.36C564.6,796.72,570.45,783.21,576.06,785.41Z"/><path class="cls-1" d="M178.24,709.32c-6.26,8.88-4.71-10.65-5.06-11.58q7.53,4.59,14-1.36C181.48,706.36,171.21,698.06,178.24,709.32Z"/><path class="cls-1" d="M439,736c1.5,9.87,12.72,1.12,12,2.18C437.76,757.55,438.86,736,439,736Z"/><path class="cls-1" d="M694.19,706.33q17.09-5.58,1.84,13.8C688.19,722,694,707.32,694.19,706.33Z"/><path class="cls-1" d="M536.45,602.64c-10.62-5.26,9.79-5.63,10.28,3.82-8.28-3.2-11.78-2.33-3.31,4.12Q529.69,613.82,536.45,602.64Z"/><path class="cls-1" d="M734.77,807.92c-9.35-4.19-1-11.19,2.66-17.87C746.34,800.28,735.67,794.19,734.77,807.92Z"/><path class="cls-1" d="M161.8,694.87c-5.57,12-8,.43-16.51,7.15C146.29,696.31,156.79,692.59,161.8,694.87Z"/><path class="cls-1" d="M567.44,702.49c8.53,22.9-20.49-1-11-3.21Q560.39,717.46,567.44,702.49Z"/><path class="cls-1" d="M258.93,752.65l18.1-1.8C273.43,759.51,264.16,761.26,258.93,752.65Z"/><path class="cls-1" d="M763.62,653.12c-3-7.39,13.44-3.68,15.34-2.48Q773.2,658.1,763.62,653.12Z"/><path class="cls-1" d="M668.41,746.05c11.91,4.91,12.24,3.61,1.3,10.33Q662.59,749.12,668.41,746.05Z"/><path class="cls-1" d="M278.71,359.71c1.21-1.72.77-14.31,12.64-3.92A14.21,14.21,0,0,1,278.71,359.71Z"/><path class="cls-1" d="M166.22,741.27l-5.52,6.93C157.32,748.29,157.64,731.62,166.22,741.27Z"/><path class="cls-1" d="M321.86,714.5,313,711.88c.13-5.65,8.56-13.51,13.51-12.9C319.64,704.18,319.9,706.17,321.86,714.5Z"/><path class="cls-1" d="M374.1,751.1c9.72-4,4.87-5.28-.74-9.14C384.83,733,385.7,764,374.1,751.1Z"/><path class="cls-1" d="M776.06,790.89l10.32,0C782.67,798.18,775.19,802.4,776.06,790.89Z"/><path class="cls-1" d="M809.75,655.48c1.44,4.34,2.09,11.21-1.08,15.06C805.91,673.88,804.26,654.91,809.75,655.48Z"/><path class="cls-1" d="M715.84,725.22q-4.33-5-3-10.62C727.68,713.8,716.2,726.36,715.84,725.22Z"/><path class="cls-1" d="M521.6,632.06c-9.65-5.71-.27-9.84,6.65-9.87C529.56,624.75,522.68,630.4,521.6,632.06Z"/><path class="cls-1" d="M190.13,749.1,181.58,751c7-7.1-5.11-15.87,5.65-16.67C186.72,734.34,189.81,747.33,190.13,749.1Z"/><path class="cls-1" d="M314.63,802.09c-14.73-6.06-14.64-4.18-1-12.54Q318.39,796.68,314.63,802.09Z"/><path class="cls-1" d="M448.08,499c-2.72-.82-19.08,2-20-3.32Q449.05,485.71,448.08,499Z"/><path class="cls-1" d="M353.52,766.64l-11.06-6.34C349.24,751.63,358.64,765.18,353.52,766.64Z"/><path class="cls-1" d="M395.11,713.62c-2.83,5.55-7.07,7.71-12.67,6.72C388.88,711,389.3,710.74,395.11,713.62Z"/><path class="cls-1" d="M498.12,709.41c16.24-1.75-3,10.57-4.14,11.41a12.24,12.24,0,0,1-4.53-5.16C495.41,714.71,496.38,714.21,498.12,709.41Z"/><path class="cls-1" d="M817.41,714.67c.43,11.9-10.65,6.43-14.82,1.13C808.71,711.83,812.14,723.55,817.41,714.67Z"/><path class="cls-1" d="M699.18,345a42.19,42.19,0,0,1-18.37-3.48C684.91,342,700.1,338.82,699.18,345Z"/><path class="cls-1" d="M179.17,785.6q9-.93,12.5,5.71C187.46,792.56,168,789.81,179.17,785.6Z"/><path class="cls-1" d="M378.25,723.55q4.28,8.46,13.37,5.4C388.09,735.21,374.61,735.11,378.25,723.55Z"/><path class="cls-1" d="M145.48,764.94q5.88-10.59,9.22-1.66Q155.51,772.49,145.48,764.94Z"/><path class="cls-1" d="M822,656.25q3.45,12.19-4.79,13.43C813.26,668.11,817,654.79,822,656.25Z"/><path class="cls-1" d="M831.57,788.18c-3.55-8.27,7.12-4.63,10.11-2.58C840.71,789,834.75,788,831.57,788.18Z"/><path class="cls-1" d="M193.21,771c7.18-1.26,10.46,2.55,10,11.32Z"/><path class="cls-1" d="M451.61,787.73q9.54,5.79-.11,12.45Q443.45,787.82,451.61,787.73Z"/><path class="cls-1" d="M122.66,800.48l6.44,7.12C120.93,816.69,117.4,800,122.66,800.48Z"/><path class="cls-1" d="M431.42,762.84q1.6-9.23,7.81-5.93Q443.22,769.26,431.42,762.84Z"/><path class="cls-1" d="M652.67,662.54l17.92-.1C664.51,666.48,658,667.93,652.67,662.54Z"/><path class="cls-1" d="M150.06,728.52q7.13,3.62,2.47,6.44Q134.28,733.54,150.06,728.52Z"/><path class="cls-1" d="M247.43,767.28q3.9-9.87,10.17-1.08Q250.91,773.64,247.43,767.28Z"/><path class="cls-1" d="M571.38,612.31c5.35,4.54,3.1,10.27-2.37,11.36A13.19,13.19,0,0,1,571.38,612.31Z"/><path class="cls-1" d="M462.77,693.08q8.06,6.1,13.7-1.81C473.47,700.89,459.53,699.73,462.77,693.08Z"/><path class="cls-1" d="M106.2,727.4c-.52-8.67,17.79-3.55,16.68-.09Z"/><path class="cls-1" d="M135.43,784.21,119.38,778C124.55,775.88,133.56,777.11,135.43,784.21Z"/><path class="cls-1" d="M554.12,596.89a8.58,8.58,0,0,1,8.49,1.81C565.39,607.67,550.53,602.18,554.12,596.89Z"/><path class="cls-1" d="M597.94,718.15c-10,2.22-9.53-4-3.85-13C594.13,711.91,589.69,714.29,597.94,718.15Z"/><path class="cls-1" d="M501.7,743.5c-10.69,7.32-3-5.14-15-1.47Q494.92,736.69,501.7,743.5Z"/><path class="cls-1" d="M471.74,726.93a29.66,29.66,0,0,1,2.07-16.76C475.53,709.54,477.28,727.43,471.74,726.93Z"/><path class="cls-1" d="M746.36,798.74q1.75,10.78-8.17,11.17Z"/><path class="cls-1" d="M397.81,757.59q-12.85,6.3-6.36-6.42Z"/><path class="cls-1" d="M380.07,704.44c-4.65,5.58-8.77,1.11-12.69.65C371.08,700.61,375.14,704,380.07,704.44Z"/><path class="cls-1" d="M242.38,767.13l-6.2,8.22c1.39,1-4.17-9-4.1-8.61Q239.36,761.7,242.38,767.13Z"/><path class="cls-1" d="M237.16,750.81l-2.07,9.59C234.15,759.52,227.68,744.69,237.16,750.81Z"/><path class="cls-1" d="M816.77,798.14a15.3,15.3,0,0,1,1.29-8.46C823.45,792.72,822.32,796.24,816.77,798.14Z"/><path class="cls-1" d="M438.76,771.27q-5.62,4.15-11.41.41Q426.87,761.17,438.76,771.27Z"/><path class="cls-1" d="M430.18,583.12q-7.76,6-7.88-5.66C424.16,575.2,432,580.2,430.18,583.12Z"/><path class="cls-1" d="M179.89,732.76c-5.55,5.71-9.7-2.29-10.34-5.83Z"/><path class="cls-1" d="M193.83,802.94q-3.21,10.18-10.24,1.38C184.44,801.52,191.53,803.35,193.83,802.94Z"/><path class="cls-1" d="M498.23,709.31q-5.75-4.09-11.28.37C488,693.7,499.89,710.07,498.23,709.31Z"/><path class="cls-1" d="M849,672.71q-4.4,9.45-7.7,2.46Q844.56,665.63,849,672.71Z"/><path class="cls-1" d="M159.89,803.28q6.27,6.24,9.81-2.56Q173.14,815.51,159.89,803.28Z"/><path class="cls-1" d="M354.87,738.74c-10.29-3.76-.11-10.62,5-6.65Q353.45,732.26,354.87,738.74Z"/><path class="cls-1" d="M95.32,724.23a7.55,7.55,0,0,1,5.56-6.33Q105.29,725.94,95.32,724.23Z"/><path class="cls-1" d="M353.09,799.9l9.92-3.82C364.21,802,364.07,802,353.09,799.9Z"/><path class="cls-1" d="M130.71,705.74l-10.36-.8C124,699.06,124,699.06,130.71,705.74Z"/><path class="cls-1" d="M658,705l-8.87,3.07Q649.83,692.89,658,705Z"/><path class="cls-1" d="M117.88,781.25q8.61,9.72-3.78,7.13Q112.17,779.65,117.88,781.25Z"/><path class="cls-1" d="M101.18,666.49c-.23-5.75,2.71-6.64,7-6.23C109.67,666.47,104.09,664.56,101.18,666.49Z"/><path class="cls-1" d="M837.76,801.31c1.1-6.59,3.84-7.6,9.67-3.19Z"/><path class="cls-1" d="M461.35,699.87c4.4,26.47-.16,1.76,7.36,8.8C457.46,718.45,461.15,699.9,461.35,699.87Z"/><path class="cls-1" d="M694.28,706.23c-8.37,5.86-5.46,3-7.27-2.56C692.89,702.63,691.16,706.48,694.28,706.23Z"/><path class="cls-1" d="M585.73,806.57q-2.51-7.53,5.94-6.84Q592.78,806.45,585.73,806.57Z"/><path class="cls-1" d="M248.92,674.83c-.49-3.1-.94-6-1.53-9.75C254.36,668.61,254.47,671,248.92,674.83Z"/><path class="cls-1" d="M341.32,761.63q-1.24,13.32-7.52,5C334.83,765.56,339.48,759.76,341.32,761.63Z"/><path class="cls-1" d="M732.35,766.13q5,6.07-2.76,10.94C724.4,772.73,730.31,772.32,732.35,766.13Z"/><path class="cls-1" d="M406.65,757.67c.09-10.49-11.36-2-3.93-10.81Q411.86,750.36,406.65,757.67Z"/><path class="cls-1" d="M370.1,752.22l-1.73,10C366.24,759.78,362.28,750.38,370.1,752.22Z"/><path class="cls-1" d="M348.15,744.3q5.46,9.72-3.8,10.4Q341.56,742.51,348.15,744.3Z"/><path class="cls-1" d="M175.39,739.27c0,6.79,4.78,8.58-4.89,7.13Q170.41,737.82,175.39,739.27Z"/><path class="cls-1" d="M533.77,673q-2.88-10.32,3.57-6.15Q539.72,675.24,533.77,673Z"/><path class="cls-1" d="M221.76,354.46q-5.34-9,1.54-8.73Q229.14,354.8,221.76,354.46Z"/><path class="cls-1" d="M443.41,101.7l3.15-14.29C450,88.18,446.59,102.42,443.41,101.7Z"/><path class="cls-1" d="M77,715.57q-2.79-6.92,4.25-9.49C82.7,708.09,79.14,714.56,77,715.57Z"/><path class="cls-1" d="M194.47,725.6q-6.94.17-7.45-4.72C188.17,720.77,199.64,722.65,194.47,725.6Z"/><path class="cls-1" d="M106,786.08c-2.19,5.13-4.07,5.45-8.49,1.58Z"/><path class="cls-1" d="M128.82,671.78q-3.09,7.13-6.7,3.7Q120.47,664.89,128.82,671.78Z"/><path class="cls-1" d="M675.31,743.55l-7.4-7C673,735.17,674.57,736.53,675.31,743.55Z"/><path class="cls-1" d="M588.94,783.73,587,792C585.7,790.14,582,780.7,588.94,783.73Z"/><path class="cls-1" d="M170.33,773.6q-7.32.84-9.5-4.14C161.66,769.4,172.7,768.4,170.33,773.6Z"/><path class="cls-1" d="M569.41,745q7-2.1,3.86,5.41Q566.64,752.72,569.41,745Z"/><path class="cls-1" d="M735.74,543.76a67.2,67.2,0,0,1,30.54-5.28C762.55,543.84,735.46,550.78,735.74,543.76Z"/><path class="cls-1" d="M752.8,530c-7,9-19.48,8.52-23.92.13Z"/><path d="M532.2,485.17c6.1-5.93,46.88,2.2,45.61,8.51C576,502.53,537.23,487.33,532.2,485.17Z"/><path d="M469.21,230.75Q463.78,228,467,223.3,474,220.32,469.21,230.75Z"/><path d="M466.19,167.5q-2-5.15-3.83-10.36Q470.45,159.62,466.19,167.5Z"/><path d="M459.1,518.38q-6.39,10.17-10.68.32Q453.66,509.34,459.1,518.38Z"/><path d="M811.51,647.91c-3.42-11.75,20.92-12.79,28.4-7.56Q830.58,652.81,811.51,647.91Z"/><path d="M580.26,722.33q-9.13,3.75-5-5.29Q582.75,717.23,580.26,722.33Z"/><path d="M366.76,776.54c.39,10.28-7.8,5.61-8.31,7.9C359.14,781.37,361.71,769.62,366.76,776.54Z"/><path d="M379.75,771.34l-5.29,6.59C372.16,778,372.28,760.36,379.75,771.34Z"/><path d="M288.51,685q6.78,3.75-.4,7.43Q282.65,688.86,288.51,685Z"/><path d="M102.1,777.6c-14.58-8.65,7.88-9.25,8.43-7.83Q110.41,776.69,102.1,777.6Z"/><path d="M204.11,683.35q-5,6.95-9.22,0Q199,676.92,204.11,683.35Z"/><path d="M505,638c-1-5,1.07-6.67,5.57-5.79C511.51,637.79,510.84,638.52,505,638Z"/><path d="M807.21,734.76q-2.54-11.1,6.55-3.81Q810.69,738.39,807.21,734.76Z"/><path d="M350.41,665.34q9.06,2.8.85,6.82Q345.43,668.05,350.41,665.34Z"/><path d="M618.14,739.5c.64-4.45-5.88-5.3,3.51-6.81C622.63,728.05,618,742,618.14,739.5Z"/><path d="M484.24,749.85q9.19,4.5.15,7.42Q476.28,754.84,484.24,749.85Z"/><path d="M197.92,730.5q5-4.87,8.2,1.66C193.45,737.64,204.44,732.29,197.92,730.5Z"/><path d="M481.84,665.23q5,3.76,1.52,8.89C484.07,672,474.42,673,481.84,665.23Z"/></g></g></svg>