<svg xmlns="http://www.w3.org/2000/svg" viewBox="0 0 1243.02 292.2"><defs><style>.cls-1{fill:#fff;}</style></defs><title>Title-Text</title><g id="Layer_2" data-name="Layer 2"><g id="Layer_1-2" data-name="Layer 1"><path d="M653.25,289.82c-15.2,0-28.88.16-42.55-.12-3.21-.07-6.41-2.36-9.59-2.32s-6.35,2.31-9.6,2.54c-5.91.44-12,.9-17.8-.1-13.35-2.3-19.77-8.9-24.67-24.12-1.71,1.84-3.19,3.38-4.62,5-17.38,19.22-38.29,24.88-63.51,18.39-32.46-8.35-47-48.85-31.22-75.93,14.85-25.48,45.87-36.87,75.69-21.51,6.67,3.45,12.36,9,18,14.12,1.3,1.18.57,4.6.78,7-2.4-.3-5.16,0-7.11-1.06-2.86-1.6-5.06-4.31-7.66-6.4-10.26-8.24-20-11.28-33-10.05v87.36c18.23,1.53,31.13-6.5,41.19-20.2,3-4.13,5.53-8.68,11.41-6.71,10.58-20.49,17.89-23.16,54.43-20.52.21-.27.53-.51.6-.8,1.35-5.87,2.78-12-1.65-17-3-3.4-18.43-2-24,1.76-2.47,1.66-4.47,4-6.79,5.92-4.16,3.39-8.1,3.41-10.42,0-2.71-4-.52-7.51,2.61-9.44,5-3.11,10.45-6.7,16.08-7.54,15.59-2.31,31.36-2.46,46.79,1.69a48,48,0,0,1,10.9,4.9c6.32,3.57,9.53,9.09,9.49,16.48,0,10,0,20.08.1,30.12C647.15,270.55,647.84,279.8,653.25,289.82Zm-62.62-10.13c7.32-1.62,13.83-2.12,15-8.7,1.18-6.78.54-13.93.23-20.91-.16-3.54-5.29-6.4-9.91-6.32s-5.3,3-5.29,6.73C590.65,259.75,590.63,269,590.63,279.69Z"/><path d="M698.49,79.07c-.44,9.76-.87,19.51-1.31,29.34H656.94c-2.76-33.14-.4-65.66-.77-98.93h42.16V54c3.07-2.06,4.87-3.19,6.58-4.43,8.09-5.86,15.89-12.18,24.36-17.43,3.72-2.31,8.73-2.95,13.25-3.4,3.76-.36,6.42,2.14,6.17,6.22-.22,3.64-3.24,5.7-6.24,4.94-6.9-1.75-11.29,2.66-17.44,5.41,13.14,21.63,25,43.4,42.3,63.65-4.67.27-7.83.61-11,.62-9,0-18.09-.72-27,0-8.29.7-12.85-2.63-16.36-9.7-3.65-7.33-8.24-14.2-12.42-21.28Z"/><path d="M100.57,110.56l-90-49.05c0,12.92,0,24.22,0,35.52,0,7.61-1.48,10.28-5.36,9.71C-.33,105.92,0,101.44,0,97.45Q.67,50.86,1.46,4.28A26.13,26.13,0,0,1,2.46,0L92,50.8c0-8.75,0-15.2,0-21.65,0-6-.18-12-.18-18,0-3.17.58-6.32,4.64-6.36,4.35,0,4.29,3.45,4.34,6.45.39,21.32.92,42.64,1,64C101.84,86.52,101,97.82,100.57,110.56Z"/><path d="M813.52,109V11.38c1.35-.48,2.26-1.08,3.16-1.07,21.7.31,43.42.1,65.07,1.21,20.69,1.06,35.62,20.91,30.12,39.6-1.69,5.76-6.08,10.74-9.77,17,3.94,4.62,7.06,10.62,6.26,18.16-1.13,10.61-6.55,18.36-17,21a98.61,98.61,0,0,1-23.69,3.28C850,110.56,832.35,109.6,813.52,109Zm49-89.36v82.21c9.22-1,17.6-1.17,25.55-3.09,9.73-2.34,13-10,9.65-19.37-2.31-6.41-4.93-8.12-13-8.45-9.78-.41-12.78-2.54-15-10.87,4.15-3.51,8.19-.19,12.17.47,7.65,1.28,14.06-.92,18.66-7s3.45-12.62.7-19c-2.36-5.46-6.75-9-12.06-11.44C880.92,19.18,872.06,19.64,862.55,19.64Z"/><path d="M1019.57,111.24c-16,0-30.64.07-45.26-.13-1.18,0-2.33-2-3.86-3.3-10.25,4.6-21.1,7.29-32.63,3.5S917.77,100.52,915.53,88c-2.72-15.22,8.26-28.8,25.28-31.44a82.61,82.61,0,0,1,15.94-.94c4.92.21,9.79,1.46,14.64,2.24.43-.6,1.1-1.1,1.12-1.63.25-5.87,2.73-13.65-3.22-16.54-7.13-3.46-15.79-2.3-23.24,1.43-3.21,1.6-5.78,4.45-8.71,6.65-3.43,2.58-6.78,2.72-9.68-.81s-.47-6.46,1.88-8.65c7-6.5,16.11-8.19,25-9.15a102.84,102.84,0,0,1,39.71,3c15.25,4.39,20.1,10.81,20.3,26.62.08,6,0,12,0,18.06C1014.59,88.06,1012.81,99.52,1019.57,111.24ZM958.69,66.43c-1.68,11.26-2.37,22.55-.39,34,12.81-2,13.65-2.91,13.83-13.41,0-3.34.15-6.67.18-10C972.4,67.82,970,65.84,958.69,66.43Z"/><path d="M289.8,113.4l-26-43.4C252,83,245.84,98.3,235.93,112.92c-16.79-28.27-30.46-56.92-46.06-86h46L254.7,62.23c9.85-13.75,16.53-28.17,26.34-42.54L306,61.41c4.76-10.61,8.92-19.91,13.1-29.2,1-2.12,1.55-4.63,3.07-6.22,1.38-1.43,4.72-3.09,5.58-2.46,1.79,1.31,2.94,4,3.49,6.29.31,1.32-1,3.09-1.72,4.58Q311,72.17,292.42,109.91A32.55,32.55,0,0,1,289.8,113.4Z"/><path d="M1091.94,36.52c21.6,23.3,14.43,40.49-14.15,51.06,4.22,1,7.93,1.45,11.33,2.73,6.23,2.34,8.63,6.17,8.34,12.19-.27,5.73-3.37,9.61-8.7,10.93-5,1.24-10.36,4.93-15.4-1.05-1.22-1.44-5-1-7.55-1-8.63,0-17.36.92-25.88,0-17.46-1.94-22.91-15.2-12.6-29.31.77-1,1.63-2,2.4-3-2.44-4.22-5.45-7.94-6.88-12.19-3.52-10.5,1.48-23,12.07-29.31,11.69-7,24.57-10.53,38.27-8.34,5.77.92,10.5.85,14.45-3.91,2.38-2.87,5.5-4.33,8.7-1.63,3.44,2.89,1.57,6-.61,8.78C1094.72,33.74,1093.5,34.86,1091.94,36.52Zm-23.79,41.19c0-11.86.11-24.1-.18-36.33,0-1.25-2.33-3-3.88-3.46-.95-.26-2.78,1.35-3.67,2.52a6.86,6.86,0,0,0-.92,3.83c-.19,9.63-.39,19.27-.36,28.9C1059.16,78.63,1062.06,80.13,1068.15,77.71Z"/><path d="M706.32,193.6l-4.2,13.5c4.26.67,7.27.75,10,1.72,1.86.66,3.28,2.56,4.9,3.9-1.72,1.66-3.19,3.89-5.24,4.82s-4.57.44-8.24.65c-1.22,23.44-.15,47-1,71.06H661.1c-2-23.5.15-47.13-.85-70.55-2.83-3-10-.83-9.19-7.36.73-5.74,6.76-2.6,9.7-4.65,9.47-20.24,32.1-28.93,52.82-20.4.61.25,1.24.48,1.84.78,5,2.54,6.84,6.15,4.89,9.33-1.83,3-4.94,2.74-10.09-.76C709.41,195.09,708.49,194.72,706.32,193.6Z"/><path d="M1192.24,77h-46.41c-2.93,8.19-.64,16.13-.38,23.9.15,4.37,4.37,4.51,7.8,4.06,9.34-1.22,16.9-5.93,23.46-12.45,1.89-1.88,3.37-4.38,5.58-5.65,1.68-1,4.85-1.31,6.2-.33s1.92,4,2,6c0,1.44-1.18,3.15-2.29,4.33-24.33,25.84-61.11,22.92-77-4.4-12.64-21.74-5.73-54,27.94-61.3,20.87-4.55,38.41,2.54,48.41,19.93C1191.86,58.7,1194.36,66.85,1192.24,77Zm-34.09-9.18c0-8.29.25-15.59-.09-22.87-.21-4.59-3.73-5.9-7.81-5.95-3.82,0-5.48,2.22-5.53,5.67-.13,7.55,0,15.11,0,23.15Z"/><path d="M799.07,254.69H751.21c0,7.35-.19,14.26,0,21.15.22,6.13,3,8.44,9.07,7.16,7.91-1.65,15.32-4.69,21.23-10.54,2.38-2.35,4.43-5.2,7.19-6.92,1.89-1.18,4.76-.82,7.19-1.16.31,2.5,1,5,.77,7.46-.14,1.44-1.6,2.89-2.73,4.08-12.24,12.94-37.09,22.23-57.92,11.74-17-8.56-26.62-27.4-23-45.84,3.54-18.22,19.83-32.83,38.28-34.35,27.8-2.3,48.58,15.76,48.53,42.23A39.75,39.75,0,0,1,799.07,254.69Zm-33.84-9.52V218.9c-9.64-3.9-12.86-3.35-13.4,2.58-.7,7.77-.17,15.64-.17,23.69Z"/><path d="M194.28,70.08H147.05c-.12,7.73-.36,15.28-.3,22.83.05,5.06,3.78,6,7.69,5.44,6.94-1.07,13.75-2.79,19-8,3.33-3.26,6.41-6.89,10.14-9.61,1.67-1.22,5.66-1.67,6.82-.58,1.36,1.29,1.31,4.72.9,7-.32,1.77-2,3.43-3.36,4.86-17.61,18.66-47.15,20.49-65.31,5.35-13.47-11.22-17.76-27-13.63-43.14a39.84,39.84,0,0,1,34.7-30.06c18.17-1.86,34,2.45,44.36,18.7A39.75,39.75,0,0,1,194.28,70.08ZM159,60.55a27.19,27.19,0,0,0,1-4.08c.12-4.63.24-9.26.19-13.89-.11-9.66-1.8-10.81-13.18-8.42V60.55Z"/><path d="M450.46,42.77c7-9.52,13.1-17.83,19.19-26.14,1.78-2.42,3.44-4.93,5.3-7.28,2.13-2.7,5.25-4,7.66-1.33,1.19,1.31,1.11,5.16,0,6.92-3.1,5.12-6.95,9.79-10.57,14.58-15.12,20-30.31,39.85-45.36,59.86-4,5.32-7.31,11.17-11.44,16.37-3.69,4.64-4.63,4.42-11.26-.14,5.74-8.42,11.51-16.86,17.53-25.66L364.41,7.08c16,0,29.55.66,43-.19,12.09-.77,19.95,3.85,26.11,14C438,28.18,444,34.55,450.46,42.77Z"/><path d="M1243,13.79c-.41,33.34.52,65.87-1.35,98.44h-40.06V13.06C1215.79,12.61,1228.91,12,1243,13.79Z"/><path d="M524.67,109.39c-28.48-.06-48.28-23.7-42.93-51.44a30.11,30.11,0,0,1,3.5-9.32c9.24-15.92,23.22-23.28,41.59-22.82S558,35.36,565.58,51.37c12.14,25.63-7.54,57-35.89,58C528,109.44,526.35,109.39,524.67,109.39Zm.89-9.35c18.23,1.39,33.78-13,34.18-31.51.41-19.28-14.64-34.31-34.18-33.06Z"/><path d="M576.51,109.09V28.91h40.83c.52,2.57,1,5.08,1.59,7.86a17.6,17.6,0,0,0,2.6-.86c5.29-2.71,10.32-6.21,15.9-8,3.45-1.09,8.05-.32,11.51,1.12,2,.82,4.06,4.84,3.69,7s-3.54,4.21-5.94,5.36c-1.51.72-3.89-.17-5.83-.56-9.13-1.86-15.63,2.44-20.57,9.33-1.54,2.14-1.84,5.52-1.87,8.35-.13,14,.15,28.08,0,42.12-.09,7.52-.82,8.22-8,8.35C599.48,109.23,588.49,109.09,576.51,109.09Z"/><path class="cls-1" d="M590.63,279.69c0-10.67,0-19.94,0-29.2,0-3.69.68-6.66,5.29-6.73s9.75,2.78,9.91,6.32c.31,7,.95,14.13-.23,20.91C604.46,277.57,598,278.07,590.63,279.69Z"/><path class="cls-1" d="M862.55,19.64c9.51,0,18.37-.46,26.75,3.48,5.31,2.49,9.7,6,12.06,11.44,2.75,6.38,3.83,13-.7,19s-11,8.26-18.66,7c-4-.66-8-4-12.17-.47,2.19,8.33,5.19,10.46,15,10.87,8,.33,10.64,2,13,8.45,3.37,9.35.08,17-9.65,19.37-8,1.92-16.33,2-25.55,3.09Z"/><path class="cls-1" d="M958.69,66.43C970,65.84,972.4,67.82,972.31,77c0,3.34-.13,6.67-.18,10-.18,10.5-1,11.37-13.83,13.41C956.32,89,957,77.69,958.69,66.43Z"/><path class="cls-1" d="M1068.15,77.71c-6.09,2.42-9,.92-9-4.54,0-9.63.17-19.27.36-28.9a6.86,6.86,0,0,1,.92-3.83c.89-1.17,2.72-2.78,3.67-2.52,1.55.43,3.85,2.21,3.88,3.46C1068.26,53.61,1068.15,65.85,1068.15,77.71Z"/><path class="cls-1" d="M1158.15,67.77h-13.47c0-8-.09-15.6,0-23.15,0-3.45,1.71-5.71,5.53-5.67,4.08,0,7.6,1.36,7.81,5.95C1158.4,52.18,1158.15,59.48,1158.15,67.77Z"/><path class="cls-1" d="M765.23,245.17H751.66c0-8-.53-15.92.17-23.69.54-5.93,3.76-6.48,13.4-2.58v26.27Z"/><path class="cls-1" d="M159,60.55h-12V34.16c11.38-2.39,13.07-1.24,13.18,8.42,0,4.63-.07,9.26-.19,13.89A27.19,27.19,0,0,1,159,60.55Z"/><path class="cls-1" d="M525.56,100V35.47c19.54-1.25,34.59,13.78,34.18,33.06C559.34,87,543.79,101.43,525.56,100Z"/></g></g></svg>